<svg width="385" height="50" viewBox="0 0 385 50" fill="none" xmlns="http://www.w3.org/2000/svg">
<mask id="path-1-outside-1_1_5881" maskUnits="userSpaceOnUse" x="55.3965" y="23.2324" width="330" height="18" fill="black">
<rect fill="white" x="55.3965" y="23.2324" width="330" height="18"/>
<path d="M69.7266 24.766H72.7086V24.923C72.2482 24.9369 71.9309 25.0346 71.7565 25.216C71.5891 25.3904 71.5054 25.7635 71.5054 26.3355V40.3667L59.2111 27.2772V38.6821C59.2111 38.9611 59.2285 39.1913 59.2634 39.3727C59.2983 39.5471 59.3611 39.6796 59.4517 39.7703C59.5424 39.861 59.6366 39.9168 59.7342 39.9377C59.8319 39.9586 60.0272 39.99 60.3202 40.0319V40.1784H57.3591V40.0319C57.7497 40.0249 58.0253 39.9726 58.1857 39.8749C58.3531 39.7773 58.4542 39.6308 58.4891 39.4355C58.524 39.2332 58.5414 38.8879 58.5414 38.3996V27.9678C58.5414 27.0959 58.4194 26.3634 58.1752 25.7705C57.9311 25.1706 57.3382 24.8881 56.3965 24.923V24.766H59.2948L70.8462 37.0708V26.189C70.8462 25.6589 70.7555 25.3171 70.5741 25.1636C70.3997 25.0032 70.1172 24.923 69.7266 24.923V24.766Z"/>
<path d="M84.1014 33.0843H79.6022L77.2689 38.9123C77.1992 39.0867 77.1643 39.1809 77.1643 39.1948C77.0736 39.3762 77.0283 39.5401 77.0283 39.6866C77.0283 39.9168 77.1992 40.0319 77.541 40.0319V40.1784H75.2495V40.0319C75.6611 40.0249 75.961 39.9098 76.1494 39.6866C76.3377 39.4634 76.526 39.1146 76.7144 38.6403L82.3017 24.5359H82.5633L88.0669 38.159C88.0669 38.2148 88.0879 38.274 88.1297 38.3368L88.2134 38.567C88.3878 38.9995 88.5866 39.3518 88.8098 39.6238C89.04 39.8958 89.3644 40.0319 89.7829 40.0319V40.1784H86.1836V40.0319C86.3859 40.0319 86.5184 39.9865 86.5812 39.8958C86.6439 39.8052 86.6753 39.7215 86.6753 39.6447C86.6753 39.4494 86.5951 39.1704 86.4347 38.8077C86.4207 38.7798 86.4033 38.7379 86.3824 38.6821C86.3614 38.6193 86.344 38.581 86.3301 38.567L84.1014 33.0843ZM79.7487 32.6553H83.9131L81.8309 27.4028L79.7487 32.6553Z"/>
<path d="M103.76 24.2324L103.028 26.0949H102.881C102.909 26.0042 102.923 25.8542 102.923 25.645C102.923 25.4706 102.86 25.3659 102.735 25.3311C102.616 25.2892 102.438 25.2683 102.201 25.2683H98.1727V38.4624C98.1727 38.7623 98.1867 39.0169 98.2146 39.2262C98.2425 39.4285 98.2948 39.5924 98.3715 39.718C98.4483 39.8366 98.5599 39.9203 98.7064 39.9691C98.8528 40.0109 99.0795 40.0319 99.3865 40.0319V40.1784H95.2116V40.0319C95.5604 39.997 95.8115 39.9482 95.965 39.8854C96.1254 39.8226 96.237 39.7075 96.2998 39.5401C96.3626 39.3657 96.394 39.0797 96.394 38.6821V25.2683H92.5331C92.1494 25.2683 91.8948 25.2892 91.7692 25.3311C91.6507 25.3729 91.5914 25.488 91.5914 25.6763C91.5914 25.7531 91.6193 25.8926 91.6751 26.0949H91.5286L90.7962 24.2324H90.9427C91.0752 24.4835 91.2112 24.6405 91.3507 24.7033C91.4693 24.7451 91.7204 24.766 92.1041 24.766H102.348C102.759 24.766 103.049 24.7416 103.216 24.6928C103.39 24.644 103.523 24.4905 103.614 24.2324H103.76Z"/>
<path d="M120.656 40.1784H117.748V37.8032C116.269 39.4564 114.497 40.283 112.432 40.283C111.756 40.283 111.125 40.1923 110.539 40.0109C109.953 39.8296 109.426 39.5436 108.959 39.153C108.498 38.7623 108.132 38.2531 107.86 37.6253C107.588 36.9906 107.452 36.2616 107.452 35.4385V26.21C107.452 25.8263 107.428 25.5473 107.379 25.3729C107.33 25.1985 107.222 25.0799 107.054 25.0172C106.887 24.9474 106.643 24.916 106.322 24.923V24.766H110.413V24.923C110.015 24.923 109.719 24.9893 109.524 25.1218C109.328 25.2474 109.231 25.5717 109.231 26.0949V34.5596C109.231 35.5711 109.353 36.3872 109.597 37.008C109.841 37.6149 110.172 38.1032 110.591 38.4729C111.016 38.8426 111.466 39.1041 111.941 39.2576C112.415 39.4111 112.872 39.4878 113.311 39.4878C114.978 39.4878 116.457 38.7379 117.748 37.2382V26.8064C117.748 26.2832 117.723 25.8996 117.674 25.6554C117.633 25.4043 117.542 25.2195 117.402 25.1009C117.263 24.9823 117.047 24.923 116.754 24.923H116.607V24.766H120.656V24.923C120.245 24.9369 119.952 24.9997 119.778 25.1113C119.603 25.216 119.516 25.502 119.516 25.9693V38.5252C119.516 38.9228 119.533 39.2192 119.568 39.4145C119.603 39.6099 119.704 39.7633 119.872 39.8749C120.046 39.9865 120.308 40.0388 120.656 40.0319V40.1784Z"/>
<path d="M124.087 24.923V24.766H128.46C129.416 24.766 130.107 24.7835 130.532 24.8184C130.965 24.8463 131.366 24.923 131.735 25.0486C132.412 25.2508 132.953 25.6205 133.357 26.1577C133.762 26.6878 133.964 27.3609 133.964 28.1771C133.964 28.7421 133.838 29.2862 133.587 29.8093C133.343 30.3325 133.015 30.7963 132.604 31.2009C132.192 31.6055 131.746 31.9403 131.265 32.2054L132.353 33.8795L132.447 34.026C132.579 34.2701 133.005 34.9014 133.723 35.9198C134.449 36.9313 135.101 37.7718 135.68 38.4415C135.945 38.7414 136.301 39.0239 136.747 39.289C137.194 39.554 137.689 39.6866 138.233 39.6866C138.624 39.6866 138.972 39.6133 139.279 39.4669C139.377 39.425 139.496 39.3657 139.635 39.289C139.775 39.2123 139.9 39.146 140.012 39.0902L140.075 39.2994C139.698 39.5924 139.304 39.8226 138.892 39.99C138.669 40.0737 138.362 40.1505 137.971 40.2202C137.588 40.29 137.201 40.3248 136.81 40.3248C136.489 40.3248 136.165 40.2865 135.837 40.2097C135.516 40.133 135.174 39.983 134.812 39.7598C134.449 39.5296 134.111 39.2192 133.797 38.8286C132.987 37.8451 132.116 36.6523 131.181 35.2502C131.181 35.2362 131.174 35.2153 131.16 35.1874C131.146 35.1595 131.139 35.1455 131.139 35.1455L129.59 32.7599L129.015 32.7809C128.931 32.7948 128.666 32.8018 128.22 32.8018H126.975V38.703C126.975 39.0867 127.013 39.3727 127.09 39.561C127.166 39.7494 127.275 39.8714 127.414 39.9272C127.554 39.983 127.773 40.0179 128.073 40.0319V40.1784H124.087V40.0319C124.575 40.0109 124.882 39.9133 125.008 39.7389C125.133 39.5575 125.196 39.1669 125.196 38.567V26.3146C125.196 25.8961 125.154 25.5892 125.07 25.3938C124.994 25.1985 124.885 25.0765 124.746 25.0276C124.606 24.9718 124.387 24.9369 124.087 24.923ZM126.975 25.1741V32.4042H128.586C128.9 32.4042 129.283 32.3658 129.737 32.2891C130.197 32.2054 130.543 32.1008 130.773 31.9752C131.212 31.7311 131.582 31.3753 131.882 30.9079C132.182 30.4336 132.332 29.8442 132.332 29.1397C132.332 28.8327 132.29 28.4944 132.206 28.1247C132.123 27.7481 131.993 27.3923 131.819 27.0575C131.652 26.7227 131.432 26.4192 131.16 26.1472C130.832 25.8193 130.441 25.5752 129.988 25.4148C129.542 25.2543 128.959 25.1741 128.241 25.1741H126.975Z"/>
<path d="M165.811 40.0319V40.1784H159.596C159.038 40.1784 158.518 40.1574 158.037 40.1156C157.562 40.0737 157.015 39.9621 156.394 39.7808C155.773 39.5924 155.17 39.3099 154.584 38.9332C153.37 38.1729 152.4 37.2033 151.675 36.0245C150.956 34.8456 150.597 33.6144 150.597 32.3309C150.597 31.459 150.789 30.5627 151.173 29.6419C151.563 28.7211 152.135 27.8736 152.889 27.0993C153.642 26.3251 154.563 25.7042 155.651 25.2369C156.746 24.7695 157.96 24.5359 159.292 24.5359C160.827 24.5359 162.428 24.8707 164.095 25.5403L164.733 27.3191H164.586C164.042 26.6285 163.296 26.06 162.347 25.6136C161.406 25.1671 160.38 24.9439 159.271 24.9439C158.225 24.9439 157.273 25.1567 156.415 25.5822C155.557 26.0077 154.838 26.5866 154.259 27.3191C153.68 28.0515 153.237 28.892 152.93 29.8407C152.631 30.7824 152.481 31.7555 152.481 32.7599C152.481 34.3852 152.805 35.6861 153.454 36.6627C154.102 37.6323 154.821 38.3403 155.609 38.7867C156.3 39.1774 157.07 39.439 157.921 39.5715C158.779 39.704 159.466 39.7703 159.983 39.7703L160.809 39.7494C161.43 39.7354 161.88 39.704 162.159 39.6552C162.445 39.5994 162.64 39.4808 162.745 39.2994C162.857 39.1181 162.912 38.8251 162.912 38.4205V36.0872C162.912 35.6338 162.822 35.3304 162.64 35.1769C162.459 35.0235 162.187 34.9537 161.824 34.9677V34.8212H165.811V34.9677C165.329 34.9747 165.022 35.0758 164.89 35.2711C164.757 35.4664 164.691 35.7873 164.691 36.2337V38.6612C164.691 39.1495 164.754 39.5017 164.879 39.718C165.012 39.9272 165.249 40.0319 165.591 40.0319H165.811Z"/>
<path d="M168.142 40.1784V40.0319C168.638 40.0319 168.951 39.9412 169.084 39.7598C169.224 39.5785 169.293 39.2681 169.293 38.8286V26.21C169.293 25.6589 169.213 25.3101 169.053 25.1636C168.899 25.0172 168.589 24.9369 168.121 24.923V24.766H172.254V24.923C171.885 24.916 171.613 24.9683 171.438 25.0799C171.264 25.1846 171.159 25.3276 171.124 25.5089C171.089 25.6903 171.072 25.9589 171.072 26.3146V37.1336C171.072 37.6149 171.128 38.016 171.239 38.3368C171.351 38.6507 171.522 38.9053 171.752 39.1006C171.989 39.296 172.296 39.439 172.673 39.5296C173.057 39.6203 173.51 39.6657 174.033 39.6657H175.916C176.6 39.6657 177.134 39.5471 177.517 39.3099C177.901 39.0727 178.17 38.7275 178.323 38.274C178.483 37.8137 178.581 37.2138 178.616 36.4744H178.762V40.1784H168.142Z"/>
<path d="M197.919 31.4311C197.919 32.61 197.727 33.7435 197.343 34.8317C196.96 35.9198 196.388 36.8859 195.627 37.73C194.874 38.574 193.95 39.2332 192.855 39.7075C191.76 40.1818 190.542 40.419 189.203 40.419C188.122 40.419 187.131 40.2342 186.232 39.8645C185.339 39.4878 184.564 38.9646 183.909 38.295C183.26 37.6184 182.765 36.8545 182.423 36.0035C182.088 35.1455 181.921 34.2457 181.921 33.304C181.921 32.3135 182.102 31.3021 182.465 30.2697C182.827 29.2303 183.368 28.2817 184.087 27.4237C184.805 26.5587 185.712 25.8612 186.807 25.3311C187.902 24.8009 189.151 24.5359 190.553 24.5359C191.662 24.5359 192.666 24.7137 193.566 25.0695C194.473 25.4183 195.254 25.9135 195.91 26.5553C196.566 27.19 197.064 27.9259 197.406 28.763C197.748 29.5931 197.919 30.4824 197.919 31.4311ZM196.956 33.325C196.956 32.1252 196.705 31.03 196.203 30.0395C195.701 29.049 195.049 28.2084 194.246 27.5179C193.451 26.8203 192.593 26.2867 191.672 25.917C190.752 25.5403 189.901 25.352 189.119 25.352C188.157 25.352 187.208 25.6066 186.273 26.1158C185.339 26.618 184.575 27.333 183.982 28.2608C183.389 29.1815 183.093 30.2174 183.093 31.3683C183.093 32.7844 183.438 34.1271 184.128 35.3967C184.826 36.6592 185.743 37.6776 186.88 38.4519C188.017 39.2192 189.221 39.6029 190.49 39.6029C191.299 39.6029 192.098 39.439 192.886 39.1111C193.674 38.7833 194.368 38.3403 194.968 37.7823C195.568 37.2173 196.05 36.5476 196.412 35.7733C196.775 34.9921 196.956 34.176 196.956 33.325Z"/>
<path d="M201.234 24.923V24.766H205.242C206.141 24.766 206.835 24.7939 207.324 24.8498C207.812 24.9056 208.248 25.0207 208.632 25.195C209.287 25.502 209.803 25.9379 210.18 26.5029C210.557 27.061 210.745 27.7062 210.745 28.4386C210.745 29.75 210.103 30.7789 208.82 31.5253C209.748 31.6927 210.463 32.0205 210.965 32.5088C211.774 33.2761 212.179 34.2911 212.179 35.5536C212.179 36.4953 211.976 37.3149 211.572 38.0125C211.167 38.703 210.693 39.2262 210.149 39.582C209.919 39.7284 209.685 39.84 209.448 39.9168C209.218 39.9935 208.966 40.0528 208.694 40.0946C208.429 40.1295 208.189 40.1539 207.972 40.1679C207.756 40.1749 207.488 40.1784 207.167 40.1784H201.213V40.0319C201.576 40.0319 201.834 39.9796 201.987 39.8749C202.141 39.7703 202.235 39.6099 202.27 39.3936C202.305 39.1704 202.322 38.7972 202.322 38.274V26.6599C202.322 26.1298 202.305 25.7601 202.27 25.5508C202.242 25.3415 202.151 25.1881 201.998 25.0904C201.844 24.9858 201.59 24.93 201.234 24.923ZM204.101 25.0904V31.8601H205.974C207.243 31.8601 208.084 31.5009 208.496 30.7824C208.914 30.0569 209.123 29.3315 209.123 28.606C209.123 27.1063 208.516 26.0774 207.303 25.5194C206.668 25.2334 205.737 25.0904 204.509 25.0904H204.101ZM205.304 32.1845H204.101V37.0708C204.101 37.5591 204.118 37.9427 204.153 38.2217C204.195 38.5008 204.314 38.7623 204.509 39.0065C204.704 39.2506 205.015 39.439 205.44 39.5715C205.873 39.704 206.462 39.7703 207.209 39.7703C208.087 39.7703 208.768 39.6273 209.249 39.3413C210.079 38.846 210.494 37.8904 210.494 36.4744C210.494 35.7559 210.396 35.1072 210.201 34.5282C210.006 33.9493 209.723 33.4645 209.354 33.0738C208.991 32.6832 208.548 32.4356 208.025 32.3309C207.529 32.2333 206.623 32.1845 205.304 32.1845Z"/>
<path d="M223.519 33.0843H219.02L216.687 38.9123C216.617 39.0867 216.582 39.1809 216.582 39.1948C216.491 39.3762 216.446 39.5401 216.446 39.6866C216.446 39.9168 216.617 40.0319 216.959 40.0319V40.1784H214.667V40.0319C215.079 40.0249 215.379 39.9098 215.567 39.6866C215.755 39.4634 215.944 39.1146 216.132 38.6403L221.719 24.5359H221.981L227.485 38.159C227.485 38.2148 227.506 38.274 227.547 38.3368L227.631 38.567C227.805 38.9995 228.004 39.3518 228.228 39.6238C228.458 39.8958 228.782 40.0319 229.201 40.0319V40.1784H225.601V40.0319C225.804 40.0319 225.936 39.9865 225.999 39.8958C226.062 39.8052 226.093 39.7215 226.093 39.6447C226.093 39.4494 226.013 39.1704 225.852 38.8077C225.838 38.7798 225.821 38.7379 225.8 38.6821C225.779 38.6193 225.762 38.581 225.748 38.567L223.519 33.0843ZM219.166 32.6553H223.331L221.249 27.4028L219.166 32.6553Z"/>
<path d="M231.292 40.1784V40.0319C231.787 40.0319 232.101 39.9412 232.233 39.7598C232.373 39.5785 232.443 39.2681 232.443 38.8286V26.21C232.443 25.6589 232.362 25.3101 232.202 25.1636C232.048 25.0172 231.738 24.9369 231.271 24.923V24.766H235.404V24.923C235.034 24.916 234.762 24.9683 234.587 25.0799C234.413 25.1846 234.308 25.3276 234.274 25.5089C234.239 25.6903 234.221 25.9589 234.221 26.3146V37.1336C234.221 37.6149 234.277 38.016 234.389 38.3368C234.5 38.6507 234.671 38.9053 234.901 39.1006C235.139 39.296 235.445 39.439 235.822 39.5296C236.206 39.6203 236.659 39.6657 237.182 39.6657H239.066C239.749 39.6657 240.283 39.5471 240.667 39.3099C241.05 39.0727 241.319 38.7275 241.472 38.274C241.633 37.8137 241.73 37.2138 241.765 36.4744H241.912V40.1784H231.292Z"/>
<path d="M260.533 24.9648L261.265 26.8901L261.14 26.911C261.133 26.8971 261.08 26.8412 260.983 26.7436C260.746 26.4646 260.474 26.196 260.167 25.9379C259.867 25.6798 259.497 25.4636 259.058 25.2892C258.618 25.1148 258.112 25.0276 257.54 25.0276C256.822 25.0276 256.201 25.1741 255.678 25.4671C255.155 25.7601 254.761 26.1472 254.496 26.6285C254.238 27.1028 254.108 27.5981 254.108 28.1143C254.108 28.5956 254.203 29.0071 254.391 29.3489C254.586 29.6838 254.837 29.9593 255.144 30.1755C255.451 30.3848 255.859 30.5836 256.369 30.7719C256.878 30.9533 257.268 31.0893 257.54 31.18C258.287 31.4102 258.977 31.6787 259.612 31.9857C260.254 32.2856 260.829 32.753 261.339 33.3877C261.848 34.0155 262.102 34.8212 262.102 35.8047C262.102 36.7185 261.876 37.5207 261.422 38.2113C260.969 38.8949 260.404 39.4076 259.727 39.7494C259.455 39.8749 258.988 39.9796 258.325 40.0633C257.669 40.14 257.213 40.1784 256.954 40.1784H252.842V35.7001H252.999C253.013 36.3628 253.076 36.9243 253.188 37.3847C253.306 37.8381 253.523 38.2427 253.836 38.5984C254.15 38.9472 254.583 39.2157 255.134 39.4041C255.692 39.5924 256.393 39.6866 257.237 39.6866C258.046 39.6866 258.719 39.5715 259.256 39.3413C259.8 39.1111 260.219 38.8216 260.512 38.4729C260.805 38.1241 261 37.7823 261.098 37.4475C261.196 37.1057 261.244 36.7952 261.244 36.5162C261.244 35.8884 261.07 35.3618 260.721 34.9363C260.372 34.5038 259.947 34.1655 259.445 33.9214C258.949 33.6772 258.269 33.4052 257.404 33.1052C256.525 32.8053 255.905 32.5646 255.542 32.3833C255.186 32.2019 254.865 31.9787 254.579 31.7136C254.196 31.3369 253.889 30.8975 253.659 30.3953C253.428 29.886 253.313 29.3385 253.313 28.7525C253.313 27.9922 253.488 27.2947 253.836 26.6599C254.192 26.0181 254.708 25.5054 255.385 25.1218C256.062 24.7312 256.857 24.5359 257.771 24.5359C258.517 24.5359 259.382 24.6649 260.365 24.923C260.386 24.923 260.418 24.93 260.46 24.9439C260.501 24.9579 260.526 24.9648 260.533 24.9648Z"/>
<path d="M281.008 31.4311C281.008 32.61 280.816 33.7435 280.432 34.8317C280.049 35.9198 279.477 36.8859 278.716 37.73C277.963 38.574 277.039 39.2332 275.944 39.7075C274.848 40.1818 273.631 40.419 272.292 40.419C271.211 40.419 270.22 40.2342 269.32 39.8645C268.427 39.4878 267.653 38.9646 266.997 38.295C266.349 37.6184 265.853 36.8545 265.512 36.0035C265.177 35.1455 265.009 34.2457 265.009 33.304C265.009 32.3135 265.191 31.3021 265.554 30.2697C265.916 29.2303 266.457 28.2817 267.175 27.4237C267.894 26.5587 268.801 25.8612 269.896 25.3311C270.991 24.8009 272.24 24.5359 273.642 24.5359C274.751 24.5359 275.755 24.7137 276.655 25.0695C277.562 25.4183 278.343 25.9135 278.999 26.5553C279.654 27.19 280.153 27.9259 280.495 28.763C280.837 29.5931 281.008 30.4824 281.008 31.4311ZM280.045 33.325C280.045 32.1252 279.794 31.03 279.292 30.0395C278.79 29.049 278.137 28.2084 277.335 27.5179C276.54 26.8203 275.682 26.2867 274.761 25.917C273.84 25.5403 272.989 25.352 272.208 25.352C271.246 25.352 270.297 25.6066 269.362 26.1158C268.427 26.618 267.664 27.333 267.071 28.2608C266.478 29.1815 266.181 30.2174 266.181 31.3683C266.181 32.7844 266.527 34.1271 267.217 35.3967C267.915 36.6592 268.832 37.6776 269.969 38.4519C271.106 39.2192 272.309 39.6029 273.579 39.6029C274.388 39.6029 275.187 39.439 275.975 39.1111C276.763 38.7833 277.457 38.3403 278.057 37.7823C278.657 37.2173 279.138 36.5476 279.501 35.7733C279.864 34.9921 280.045 34.176 280.045 33.325Z"/>
<path d="M283.706 40.1784V40.0319C284.201 40.0319 284.515 39.9412 284.647 39.7598C284.787 39.5785 284.856 39.2681 284.856 38.8286V26.21C284.856 25.6589 284.776 25.3101 284.616 25.1636C284.462 25.0172 284.152 24.9369 283.685 24.923V24.766H287.818V24.923C287.448 24.916 287.176 24.9683 287.001 25.0799C286.827 25.1846 286.722 25.3276 286.688 25.5089C286.653 25.6903 286.635 25.9589 286.635 26.3146V37.1336C286.635 37.6149 286.691 38.016 286.803 38.3368C286.914 38.6507 287.085 38.9053 287.315 39.1006C287.553 39.296 287.859 39.439 288.236 39.5296C288.62 39.6203 289.073 39.6657 289.596 39.6657H291.48C292.163 39.6657 292.697 39.5471 293.081 39.3099C293.464 39.0727 293.733 38.7275 293.886 38.274C294.047 37.8137 294.144 37.2138 294.179 36.4744H294.326V40.1784H283.706Z"/>
<path d="M311.965 40.1784H309.056V37.8032C307.577 39.4564 305.806 40.283 303.741 40.283C303.064 40.283 302.433 40.1923 301.847 40.0109C301.261 39.8296 300.734 39.5436 300.267 39.153C299.807 38.7623 299.441 38.2531 299.168 37.6253C298.896 36.9906 298.76 36.2616 298.76 35.4385V26.21C298.76 25.8263 298.736 25.5473 298.687 25.3729C298.638 25.1985 298.53 25.0799 298.363 25.0172C298.195 24.9474 297.951 24.916 297.63 24.923V24.766H301.722V24.923C301.324 24.923 301.027 24.9893 300.832 25.1218C300.637 25.2474 300.539 25.5717 300.539 26.0949V34.5596C300.539 35.5711 300.661 36.3872 300.905 37.008C301.15 37.6149 301.481 38.1032 301.899 38.4729C302.325 38.8426 302.775 39.1041 303.249 39.2576C303.723 39.4111 304.18 39.4878 304.62 39.4878C306.287 39.4878 307.766 38.7379 309.056 37.2382V26.8064C309.056 26.2832 309.032 25.8996 308.983 25.6554C308.941 25.4043 308.85 25.2195 308.711 25.1009C308.571 24.9823 308.355 24.923 308.062 24.923H307.916V24.766H311.965V24.923C311.553 24.9369 311.26 24.9997 311.086 25.1113C310.912 25.216 310.825 25.502 310.825 25.9693V38.5252C310.825 38.9228 310.842 39.2192 310.877 39.4145C310.912 39.6099 311.013 39.7633 311.18 39.8749C311.355 39.9865 311.616 40.0388 311.965 40.0319V40.1784Z"/>
<path d="M327.522 24.2324L326.79 26.0949H326.643C326.671 26.0042 326.685 25.8542 326.685 25.645C326.685 25.4706 326.622 25.3659 326.497 25.3311C326.378 25.2892 326.2 25.2683 325.963 25.2683H321.935V38.4624C321.935 38.7623 321.949 39.0169 321.977 39.2262C322.004 39.4285 322.057 39.5924 322.134 39.718C322.21 39.8366 322.322 39.9203 322.468 39.9691C322.615 40.0109 322.842 40.0319 323.148 40.0319V40.1784H318.974V40.0319C319.322 39.997 319.574 39.9482 319.727 39.8854C319.887 39.8226 319.999 39.7075 320.062 39.5401C320.125 39.3657 320.156 39.0797 320.156 38.6821V25.2683H316.295C315.911 25.2683 315.657 25.2892 315.531 25.3311C315.413 25.3729 315.353 25.488 315.353 25.6763C315.353 25.7531 315.381 25.8926 315.437 26.0949H315.291L314.558 24.2324H314.705C314.837 24.4835 314.973 24.6405 315.113 24.7033C315.231 24.7451 315.482 24.766 315.866 24.766H326.11C326.521 24.766 326.811 24.7416 326.978 24.6928C327.152 24.644 327.285 24.4905 327.376 24.2324H327.522Z"/>
<path d="M334.07 24.766V24.923C333.833 24.9021 333.579 24.9439 333.307 25.0486C333.042 25.1462 332.909 25.3764 332.909 25.7391C332.895 25.8228 332.888 26.0844 332.888 26.5239V38.3578C332.888 38.846 332.905 39.1983 332.94 39.4145C332.975 39.6238 333.076 39.7808 333.244 39.8854C333.418 39.99 333.694 40.0388 334.07 40.0319V40.1784H329.958V40.0319C330.328 40.0179 330.59 39.9691 330.743 39.8854C330.904 39.7947 331.005 39.6482 331.047 39.4459C331.088 39.2436 331.109 38.8879 331.109 38.3787V26.6599C331.109 26.1925 331.092 25.8438 331.057 25.6136C331.022 25.3834 330.921 25.2055 330.754 25.0799C330.586 24.9544 330.321 24.9021 329.958 24.923V24.766H334.07Z"/>
<path d="M353.216 31.4311C353.216 32.61 353.025 33.7435 352.641 34.8317C352.257 35.9198 351.685 36.8859 350.925 37.73C350.172 38.574 349.247 39.2332 348.152 39.7075C347.057 40.1818 345.84 40.419 344.501 40.419C343.419 40.419 342.429 40.2342 341.529 39.8645C340.636 39.4878 339.862 38.9646 339.206 38.295C338.557 37.6184 338.062 36.8545 337.72 36.0035C337.386 35.1455 337.218 34.2457 337.218 33.304C337.218 32.3135 337.4 31.3021 337.762 30.2697C338.125 29.2303 338.666 28.2817 339.384 27.4237C340.103 26.5587 341.009 25.8612 342.104 25.3311C343.2 24.8009 344.448 24.5359 345.85 24.5359C346.959 24.5359 347.964 24.7137 348.864 25.0695C349.771 25.4183 350.552 25.9135 351.207 26.5553C351.863 27.19 352.362 27.9259 352.704 28.763C353.046 29.5931 353.216 30.4824 353.216 31.4311ZM352.254 33.325C352.254 32.1252 352.003 31.03 351.5 30.0395C350.998 29.049 350.346 28.2084 349.544 27.5179C348.749 26.8203 347.891 26.2867 346.97 25.917C346.049 25.5403 345.198 25.352 344.417 25.352C343.454 25.352 342.506 25.6066 341.571 26.1158C340.636 26.618 339.872 27.333 339.279 28.2608C338.686 29.1815 338.39 30.2174 338.39 31.3683C338.39 32.7844 338.735 34.1271 339.426 35.3967C340.123 36.6592 341.041 37.6776 342.178 38.4519C343.315 39.2192 344.518 39.6029 345.788 39.6029C346.597 39.6029 347.395 39.439 348.184 39.1111C348.972 38.7833 349.666 38.3403 350.266 37.7823C350.866 37.2173 351.347 36.5476 351.71 35.7733C352.072 34.9921 352.254 34.176 352.254 33.325Z"/>
<path d="M369.129 24.766H372.111V24.923C371.651 24.9369 371.334 25.0346 371.159 25.216C370.992 25.3904 370.908 25.7635 370.908 26.3355V40.3667L358.614 27.2772V38.6821C358.614 38.9611 358.631 39.1913 358.666 39.3727C358.701 39.5471 358.764 39.6796 358.854 39.7703C358.945 39.861 359.039 39.9168 359.137 39.9377C359.235 39.9586 359.43 39.99 359.723 40.0319V40.1784H356.762V40.0319C357.152 40.0249 357.428 39.9726 357.588 39.8749C357.756 39.7773 357.857 39.6308 357.892 39.4355C357.927 39.2332 357.944 38.8879 357.944 38.3996V27.9678C357.944 27.0959 357.822 26.3634 357.578 25.7705C357.334 25.1706 356.741 24.8881 355.799 24.923V24.766H358.697L370.249 37.0708V26.189C370.249 25.6589 370.158 25.3171 369.977 25.1636C369.802 25.0032 369.52 24.923 369.129 24.923V24.766Z"/>
<path d="M382.772 24.9648L383.504 26.8901L383.379 26.911C383.372 26.8971 383.319 26.8412 383.222 26.7436C382.984 26.4646 382.712 26.196 382.405 25.9379C382.105 25.6798 381.736 25.4636 381.296 25.2892C380.857 25.1148 380.351 25.0276 379.779 25.0276C379.061 25.0276 378.44 25.1741 377.917 25.4671C377.394 25.7601 376.999 26.1472 376.734 26.6285C376.476 27.1028 376.347 27.5981 376.347 28.1143C376.347 28.5956 376.441 29.0071 376.63 29.3489C376.825 29.6838 377.076 29.9593 377.383 30.1755C377.69 30.3848 378.098 30.5836 378.607 30.7719C379.116 30.9533 379.507 31.0893 379.779 31.18C380.526 31.4102 381.216 31.6787 381.851 31.9857C382.493 32.2856 383.068 32.753 383.577 33.3877C384.087 34.0155 384.341 34.8212 384.341 35.8047C384.341 36.7185 384.114 37.5207 383.661 38.2113C383.208 38.8949 382.643 39.4076 381.966 39.7494C381.694 39.8749 381.227 39.9796 380.564 40.0633C379.908 40.14 379.451 40.1784 379.193 40.1784H375.081V35.7001H375.238C375.252 36.3628 375.315 36.9243 375.426 37.3847C375.545 37.8381 375.761 38.2427 376.075 38.5984C376.389 38.9472 376.822 39.2157 377.373 39.4041C377.931 39.5924 378.632 39.6866 379.476 39.6866C380.285 39.6866 380.958 39.5715 381.495 39.3413C382.039 39.1111 382.458 38.8216 382.751 38.4729C383.044 38.1241 383.239 37.7823 383.337 37.4475C383.434 37.1057 383.483 36.7952 383.483 36.5162C383.483 35.8884 383.309 35.3618 382.96 34.9363C382.611 34.5038 382.186 34.1655 381.683 33.9214C381.188 33.6772 380.508 33.4052 379.643 33.1052C378.764 32.8053 378.143 32.5646 377.781 32.3833C377.425 32.2019 377.104 31.9787 376.818 31.7136C376.434 31.3369 376.128 30.8975 375.897 30.3953C375.667 29.886 375.552 29.3385 375.552 28.7525C375.552 27.9922 375.726 27.2947 376.075 26.6599C376.431 26.0181 376.947 25.5054 377.624 25.1218C378.3 24.7312 379.096 24.5359 380.009 24.5359C380.756 24.5359 381.621 24.6649 382.604 24.923C382.625 24.923 382.657 24.93 382.698 24.9439C382.74 24.9579 382.765 24.9648 382.772 24.9648Z"/>
</mask>
<path d="M69.7266 24.766H72.7086V24.923C72.2482 24.9369 71.9309 25.0346 71.7565 25.216C71.5891 25.3904 71.5054 25.7635 71.5054 26.3355V40.3667L59.2111 27.2772V38.6821C59.2111 38.9611 59.2285 39.1913 59.2634 39.3727C59.2983 39.5471 59.3611 39.6796 59.4517 39.7703C59.5424 39.861 59.6366 39.9168 59.7342 39.9377C59.8319 39.9586 60.0272 39.99 60.3202 40.0319V40.1784H57.3591V40.0319C57.7497 40.0249 58.0253 39.9726 58.1857 39.8749C58.3531 39.7773 58.4542 39.6308 58.4891 39.4355C58.524 39.2332 58.5414 38.8879 58.5414 38.3996V27.9678C58.5414 27.0959 58.4194 26.3634 58.1752 25.7705C57.9311 25.1706 57.3382 24.8881 56.3965 24.923V24.766H59.2948L70.8462 37.0708V26.189C70.8462 25.6589 70.7555 25.3171 70.5741 25.1636C70.3997 25.0032 70.1172 24.923 69.7266 24.923V24.766Z" fill="black"/>
<path d="M84.1014 33.0843H79.6022L77.2689 38.9123C77.1992 39.0867 77.1643 39.1809 77.1643 39.1948C77.0736 39.3762 77.0283 39.5401 77.0283 39.6866C77.0283 39.9168 77.1992 40.0319 77.541 40.0319V40.1784H75.2495V40.0319C75.6611 40.0249 75.961 39.9098 76.1494 39.6866C76.3377 39.4634 76.526 39.1146 76.7144 38.6403L82.3017 24.5359H82.5633L88.0669 38.159C88.0669 38.2148 88.0879 38.274 88.1297 38.3368L88.2134 38.567C88.3878 38.9995 88.5866 39.3518 88.8098 39.6238C89.04 39.8958 89.3644 40.0319 89.7829 40.0319V40.1784H86.1836V40.0319C86.3859 40.0319 86.5184 39.9865 86.5812 39.8958C86.6439 39.8052 86.6753 39.7215 86.6753 39.6447C86.6753 39.4494 86.5951 39.1704 86.4347 38.8077C86.4207 38.7798 86.4033 38.7379 86.3824 38.6821C86.3614 38.6193 86.344 38.581 86.3301 38.567L84.1014 33.0843ZM79.7487 32.6553H83.9131L81.8309 27.4028L79.7487 32.6553Z" fill="black"/>
<path d="M103.76 24.2324L103.028 26.0949H102.881C102.909 26.0042 102.923 25.8542 102.923 25.645C102.923 25.4706 102.86 25.3659 102.735 25.3311C102.616 25.2892 102.438 25.2683 102.201 25.2683H98.1727V38.4624C98.1727 38.7623 98.1867 39.0169 98.2146 39.2262C98.2425 39.4285 98.2948 39.5924 98.3715 39.718C98.4483 39.8366 98.5599 39.9203 98.7064 39.9691C98.8528 40.0109 99.0795 40.0319 99.3865 40.0319V40.1784H95.2116V40.0319C95.5604 39.997 95.8115 39.9482 95.965 39.8854C96.1254 39.8226 96.237 39.7075 96.2998 39.5401C96.3626 39.3657 96.394 39.0797 96.394 38.6821V25.2683H92.5331C92.1494 25.2683 91.8948 25.2892 91.7692 25.3311C91.6507 25.3729 91.5914 25.488 91.5914 25.6763C91.5914 25.7531 91.6193 25.8926 91.6751 26.0949H91.5286L90.7962 24.2324H90.9427C91.0752 24.4835 91.2112 24.6405 91.3507 24.7033C91.4693 24.7451 91.7204 24.766 92.1041 24.766H102.348C102.759 24.766 103.049 24.7416 103.216 24.6928C103.39 24.644 103.523 24.4905 103.614 24.2324H103.76Z" fill="black"/>
<path d="M120.656 40.1784H117.748V37.8032C116.269 39.4564 114.497 40.283 112.432 40.283C111.756 40.283 111.125 40.1923 110.539 40.0109C109.953 39.8296 109.426 39.5436 108.959 39.153C108.498 38.7623 108.132 38.2531 107.86 37.6253C107.588 36.9906 107.452 36.2616 107.452 35.4385V26.21C107.452 25.8263 107.428 25.5473 107.379 25.3729C107.33 25.1985 107.222 25.0799 107.054 25.0172C106.887 24.9474 106.643 24.916 106.322 24.923V24.766H110.413V24.923C110.015 24.923 109.719 24.9893 109.524 25.1218C109.328 25.2474 109.231 25.5717 109.231 26.0949V34.5596C109.231 35.5711 109.353 36.3872 109.597 37.008C109.841 37.6149 110.172 38.1032 110.591 38.4729C111.016 38.8426 111.466 39.1041 111.941 39.2576C112.415 39.4111 112.872 39.4878 113.311 39.4878C114.978 39.4878 116.457 38.7379 117.748 37.2382V26.8064C117.748 26.2832 117.723 25.8996 117.674 25.6554C117.633 25.4043 117.542 25.2195 117.402 25.1009C117.263 24.9823 117.047 24.923 116.754 24.923H116.607V24.766H120.656V24.923C120.245 24.9369 119.952 24.9997 119.778 25.1113C119.603 25.216 119.516 25.502 119.516 25.9693V38.5252C119.516 38.9228 119.533 39.2192 119.568 39.4145C119.603 39.6099 119.704 39.7633 119.872 39.8749C120.046 39.9865 120.308 40.0388 120.656 40.0319V40.1784Z" fill="black"/>
<path d="M124.087 24.923V24.766H128.46C129.416 24.766 130.107 24.7835 130.532 24.8184C130.965 24.8463 131.366 24.923 131.735 25.0486C132.412 25.2508 132.953 25.6205 133.357 26.1577C133.762 26.6878 133.964 27.3609 133.964 28.1771C133.964 28.7421 133.838 29.2862 133.587 29.8093C133.343 30.3325 133.015 30.7963 132.604 31.2009C132.192 31.6055 131.746 31.9403 131.265 32.2054L132.353 33.8795L132.447 34.026C132.579 34.2701 133.005 34.9014 133.723 35.9198C134.449 36.9313 135.101 37.7718 135.68 38.4415C135.945 38.7414 136.301 39.0239 136.747 39.289C137.194 39.554 137.689 39.6866 138.233 39.6866C138.624 39.6866 138.972 39.6133 139.279 39.4669C139.377 39.425 139.496 39.3657 139.635 39.289C139.775 39.2123 139.9 39.146 140.012 39.0902L140.075 39.2994C139.698 39.5924 139.304 39.8226 138.892 39.99C138.669 40.0737 138.362 40.1505 137.971 40.2202C137.588 40.29 137.201 40.3248 136.81 40.3248C136.489 40.3248 136.165 40.2865 135.837 40.2097C135.516 40.133 135.174 39.983 134.812 39.7598C134.449 39.5296 134.111 39.2192 133.797 38.8286C132.987 37.8451 132.116 36.6523 131.181 35.2502C131.181 35.2362 131.174 35.2153 131.16 35.1874C131.146 35.1595 131.139 35.1455 131.139 35.1455L129.59 32.7599L129.015 32.7809C128.931 32.7948 128.666 32.8018 128.22 32.8018H126.975V38.703C126.975 39.0867 127.013 39.3727 127.09 39.561C127.166 39.7494 127.275 39.8714 127.414 39.9272C127.554 39.983 127.773 40.0179 128.073 40.0319V40.1784H124.087V40.0319C124.575 40.0109 124.882 39.9133 125.008 39.7389C125.133 39.5575 125.196 39.1669 125.196 38.567V26.3146C125.196 25.8961 125.154 25.5892 125.07 25.3938C124.994 25.1985 124.885 25.0765 124.746 25.0276C124.606 24.9718 124.387 24.9369 124.087 24.923ZM126.975 25.1741V32.4042H128.586C128.9 32.4042 129.283 32.3658 129.737 32.2891C130.197 32.2054 130.543 32.1008 130.773 31.9752C131.212 31.7311 131.582 31.3753 131.882 30.9079C132.182 30.4336 132.332 29.8442 132.332 29.1397C132.332 28.8327 132.29 28.4944 132.206 28.1247C132.123 27.7481 131.993 27.3923 131.819 27.0575C131.652 26.7227 131.432 26.4192 131.16 26.1472C130.832 25.8193 130.441 25.5752 129.988 25.4148C129.542 25.2543 128.959 25.1741 128.241 25.1741H126.975Z" fill="black"/>
<path d="M165.811 40.0319V40.1784H159.596C159.038 40.1784 158.518 40.1574 158.037 40.1156C157.562 40.0737 157.015 39.9621 156.394 39.7808C155.773 39.5924 155.17 39.3099 154.584 38.9332C153.37 38.1729 152.4 37.2033 151.675 36.0245C150.956 34.8456 150.597 33.6144 150.597 32.3309C150.597 31.459 150.789 30.5627 151.173 29.6419C151.563 28.7211 152.135 27.8736 152.889 27.0993C153.642 26.3251 154.563 25.7042 155.651 25.2369C156.746 24.7695 157.96 24.5359 159.292 24.5359C160.827 24.5359 162.428 24.8707 164.095 25.5403L164.733 27.3191H164.586C164.042 26.6285 163.296 26.06 162.347 25.6136C161.406 25.1671 160.38 24.9439 159.271 24.9439C158.225 24.9439 157.273 25.1567 156.415 25.5822C155.557 26.0077 154.838 26.5866 154.259 27.3191C153.68 28.0515 153.237 28.892 152.93 29.8407C152.631 30.7824 152.481 31.7555 152.481 32.7599C152.481 34.3852 152.805 35.6861 153.454 36.6627C154.102 37.6323 154.821 38.3403 155.609 38.7867C156.3 39.1774 157.07 39.439 157.921 39.5715C158.779 39.704 159.466 39.7703 159.983 39.7703L160.809 39.7494C161.43 39.7354 161.88 39.704 162.159 39.6552C162.445 39.5994 162.64 39.4808 162.745 39.2994C162.857 39.1181 162.912 38.8251 162.912 38.4205V36.0872C162.912 35.6338 162.822 35.3304 162.64 35.1769C162.459 35.0235 162.187 34.9537 161.824 34.9677V34.8212H165.811V34.9677C165.329 34.9747 165.022 35.0758 164.89 35.2711C164.757 35.4664 164.691 35.7873 164.691 36.2337V38.6612C164.691 39.1495 164.754 39.5017 164.879 39.718C165.012 39.9272 165.249 40.0319 165.591 40.0319H165.811Z" fill="black"/>
<path d="M168.142 40.1784V40.0319C168.638 40.0319 168.951 39.9412 169.084 39.7598C169.224 39.5785 169.293 39.2681 169.293 38.8286V26.21C169.293 25.6589 169.213 25.3101 169.053 25.1636C168.899 25.0172 168.589 24.9369 168.121 24.923V24.766H172.254V24.923C171.885 24.916 171.613 24.9683 171.438 25.0799C171.264 25.1846 171.159 25.3276 171.124 25.5089C171.089 25.6903 171.072 25.9589 171.072 26.3146V37.1336C171.072 37.6149 171.128 38.016 171.239 38.3368C171.351 38.6507 171.522 38.9053 171.752 39.1006C171.989 39.296 172.296 39.439 172.673 39.5296C173.057 39.6203 173.51 39.6657 174.033 39.6657H175.916C176.6 39.6657 177.134 39.5471 177.517 39.3099C177.901 39.0727 178.17 38.7275 178.323 38.274C178.483 37.8137 178.581 37.2138 178.616 36.4744H178.762V40.1784H168.142Z" fill="black"/>
<path d="M197.919 31.4311C197.919 32.61 197.727 33.7435 197.343 34.8317C196.96 35.9198 196.388 36.8859 195.627 37.73C194.874 38.574 193.95 39.2332 192.855 39.7075C191.76 40.1818 190.542 40.419 189.203 40.419C188.122 40.419 187.131 40.2342 186.232 39.8645C185.339 39.4878 184.564 38.9646 183.909 38.295C183.26 37.6184 182.765 36.8545 182.423 36.0035C182.088 35.1455 181.921 34.2457 181.921 33.304C181.921 32.3135 182.102 31.3021 182.465 30.2697C182.827 29.2303 183.368 28.2817 184.087 27.4237C184.805 26.5587 185.712 25.8612 186.807 25.3311C187.902 24.8009 189.151 24.5359 190.553 24.5359C191.662 24.5359 192.666 24.7137 193.566 25.0695C194.473 25.4183 195.254 25.9135 195.91 26.5553C196.566 27.19 197.064 27.9259 197.406 28.763C197.748 29.5931 197.919 30.4824 197.919 31.4311ZM196.956 33.325C196.956 32.1252 196.705 31.03 196.203 30.0395C195.701 29.049 195.049 28.2084 194.246 27.5179C193.451 26.8203 192.593 26.2867 191.672 25.917C190.752 25.5403 189.901 25.352 189.119 25.352C188.157 25.352 187.208 25.6066 186.273 26.1158C185.339 26.618 184.575 27.333 183.982 28.2608C183.389 29.1815 183.093 30.2174 183.093 31.3683C183.093 32.7844 183.438 34.1271 184.128 35.3967C184.826 36.6592 185.743 37.6776 186.88 38.4519C188.017 39.2192 189.221 39.6029 190.49 39.6029C191.299 39.6029 192.098 39.439 192.886 39.1111C193.674 38.7833 194.368 38.3403 194.968 37.7823C195.568 37.2173 196.05 36.5476 196.412 35.7733C196.775 34.9921 196.956 34.176 196.956 33.325Z" fill="black"/>
<path d="M201.234 24.923V24.766H205.242C206.141 24.766 206.835 24.7939 207.324 24.8498C207.812 24.9056 208.248 25.0207 208.632 25.195C209.287 25.502 209.803 25.9379 210.18 26.5029C210.557 27.061 210.745 27.7062 210.745 28.4386C210.745 29.75 210.103 30.7789 208.82 31.5253C209.748 31.6927 210.463 32.0205 210.965 32.5088C211.774 33.2761 212.179 34.2911 212.179 35.5536C212.179 36.4953 211.976 37.3149 211.572 38.0125C211.167 38.703 210.693 39.2262 210.149 39.582C209.919 39.7284 209.685 39.84 209.448 39.9168C209.218 39.9935 208.966 40.0528 208.694 40.0946C208.429 40.1295 208.189 40.1539 207.972 40.1679C207.756 40.1749 207.488 40.1784 207.167 40.1784H201.213V40.0319C201.576 40.0319 201.834 39.9796 201.987 39.8749C202.141 39.7703 202.235 39.6099 202.27 39.3936C202.305 39.1704 202.322 38.7972 202.322 38.274V26.6599C202.322 26.1298 202.305 25.7601 202.27 25.5508C202.242 25.3415 202.151 25.1881 201.998 25.0904C201.844 24.9858 201.59 24.93 201.234 24.923ZM204.101 25.0904V31.8601H205.974C207.243 31.8601 208.084 31.5009 208.496 30.7824C208.914 30.0569 209.123 29.3315 209.123 28.606C209.123 27.1063 208.516 26.0774 207.303 25.5194C206.668 25.2334 205.737 25.0904 204.509 25.0904H204.101ZM205.304 32.1845H204.101V37.0708C204.101 37.5591 204.118 37.9427 204.153 38.2217C204.195 38.5008 204.314 38.7623 204.509 39.0065C204.704 39.2506 205.015 39.439 205.44 39.5715C205.873 39.704 206.462 39.7703 207.209 39.7703C208.087 39.7703 208.768 39.6273 209.249 39.3413C210.079 38.846 210.494 37.8904 210.494 36.4744C210.494 35.7559 210.396 35.1072 210.201 34.5282C210.006 33.9493 209.723 33.4645 209.354 33.0738C208.991 32.6832 208.548 32.4356 208.025 32.3309C207.529 32.2333 206.623 32.1845 205.304 32.1845Z" fill="black"/>
<path d="M223.519 33.0843H219.02L216.687 38.9123C216.617 39.0867 216.582 39.1809 216.582 39.1948C216.491 39.3762 216.446 39.5401 216.446 39.6866C216.446 39.9168 216.617 40.0319 216.959 40.0319V40.1784H214.667V40.0319C215.079 40.0249 215.379 39.9098 215.567 39.6866C215.755 39.4634 215.944 39.1146 216.132 38.6403L221.719 24.5359H221.981L227.485 38.159C227.485 38.2148 227.506 38.274 227.547 38.3368L227.631 38.567C227.805 38.9995 228.004 39.3518 228.228 39.6238C228.458 39.8958 228.782 40.0319 229.201 40.0319V40.1784H225.601V40.0319C225.804 40.0319 225.936 39.9865 225.999 39.8958C226.062 39.8052 226.093 39.7215 226.093 39.6447C226.093 39.4494 226.013 39.1704 225.852 38.8077C225.838 38.7798 225.821 38.7379 225.8 38.6821C225.779 38.6193 225.762 38.581 225.748 38.567L223.519 33.0843ZM219.166 32.6553H223.331L221.249 27.4028L219.166 32.6553Z" fill="black"/>
<path d="M231.292 40.1784V40.0319C231.787 40.0319 232.101 39.9412 232.233 39.7598C232.373 39.5785 232.443 39.2681 232.443 38.8286V26.21C232.443 25.6589 232.362 25.3101 232.202 25.1636C232.048 25.0172 231.738 24.9369 231.271 24.923V24.766H235.404V24.923C235.034 24.916 234.762 24.9683 234.587 25.0799C234.413 25.1846 234.308 25.3276 234.274 25.5089C234.239 25.6903 234.221 25.9589 234.221 26.3146V37.1336C234.221 37.6149 234.277 38.016 234.389 38.3368C234.5 38.6507 234.671 38.9053 234.901 39.1006C235.139 39.296 235.445 39.439 235.822 39.5296C236.206 39.6203 236.659 39.6657 237.182 39.6657H239.066C239.749 39.6657 240.283 39.5471 240.667 39.3099C241.05 39.0727 241.319 38.7275 241.472 38.274C241.633 37.8137 241.73 37.2138 241.765 36.4744H241.912V40.1784H231.292Z" fill="black"/>
<path d="M260.533 24.9648L261.265 26.8901L261.14 26.911C261.133 26.8971 261.08 26.8412 260.983 26.7436C260.746 26.4646 260.474 26.196 260.167 25.9379C259.867 25.6798 259.497 25.4636 259.058 25.2892C258.618 25.1148 258.112 25.0276 257.54 25.0276C256.822 25.0276 256.201 25.1741 255.678 25.4671C255.155 25.7601 254.761 26.1472 254.496 26.6285C254.238 27.1028 254.108 27.5981 254.108 28.1143C254.108 28.5956 254.203 29.0071 254.391 29.3489C254.586 29.6838 254.837 29.9593 255.144 30.1755C255.451 30.3848 255.859 30.5836 256.369 30.7719C256.878 30.9533 257.268 31.0893 257.54 31.18C258.287 31.4102 258.977 31.6787 259.612 31.9857C260.254 32.2856 260.829 32.753 261.339 33.3877C261.848 34.0155 262.102 34.8212 262.102 35.8047C262.102 36.7185 261.876 37.5207 261.422 38.2113C260.969 38.8949 260.404 39.4076 259.727 39.7494C259.455 39.8749 258.988 39.9796 258.325 40.0633C257.669 40.14 257.213 40.1784 256.954 40.1784H252.842V35.7001H252.999C253.013 36.3628 253.076 36.9243 253.188 37.3847C253.306 37.8381 253.523 38.2427 253.836 38.5984C254.15 38.9472 254.583 39.2157 255.134 39.4041C255.692 39.5924 256.393 39.6866 257.237 39.6866C258.046 39.6866 258.719 39.5715 259.256 39.3413C259.8 39.1111 260.219 38.8216 260.512 38.4729C260.805 38.1241 261 37.7823 261.098 37.4475C261.196 37.1057 261.244 36.7952 261.244 36.5162C261.244 35.8884 261.07 35.3618 260.721 34.9363C260.372 34.5038 259.947 34.1655 259.445 33.9214C258.949 33.6772 258.269 33.4052 257.404 33.1052C256.525 32.8053 255.905 32.5646 255.542 32.3833C255.186 32.2019 254.865 31.9787 254.579 31.7136C254.196 31.3369 253.889 30.8975 253.659 30.3953C253.428 29.886 253.313 29.3385 253.313 28.7525C253.313 27.9922 253.488 27.2947 253.836 26.6599C254.192 26.0181 254.708 25.5054 255.385 25.1218C256.062 24.7312 256.857 24.5359 257.771 24.5359C258.517 24.5359 259.382 24.6649 260.365 24.923C260.386 24.923 260.418 24.93 260.46 24.9439C260.501 24.9579 260.526 24.9648 260.533 24.9648Z" fill="black"/>
<path d="M281.008 31.4311C281.008 32.61 280.816 33.7435 280.432 34.8317C280.049 35.9198 279.477 36.8859 278.716 37.73C277.963 38.574 277.039 39.2332 275.944 39.7075C274.848 40.1818 273.631 40.419 272.292 40.419C271.211 40.419 270.22 40.2342 269.32 39.8645C268.427 39.4878 267.653 38.9646 266.997 38.295C266.349 37.6184 265.853 36.8545 265.512 36.0035C265.177 35.1455 265.009 34.2457 265.009 33.304C265.009 32.3135 265.191 31.3021 265.554 30.2697C265.916 29.2303 266.457 28.2817 267.175 27.4237C267.894 26.5587 268.801 25.8612 269.896 25.3311C270.991 24.8009 272.24 24.5359 273.642 24.5359C274.751 24.5359 275.755 24.7137 276.655 25.0695C277.562 25.4183 278.343 25.9135 278.999 26.5553C279.654 27.19 280.153 27.9259 280.495 28.763C280.837 29.5931 281.008 30.4824 281.008 31.4311ZM280.045 33.325C280.045 32.1252 279.794 31.03 279.292 30.0395C278.79 29.049 278.137 28.2084 277.335 27.5179C276.54 26.8203 275.682 26.2867 274.761 25.917C273.84 25.5403 272.989 25.352 272.208 25.352C271.246 25.352 270.297 25.6066 269.362 26.1158C268.427 26.618 267.664 27.333 267.071 28.2608C266.478 29.1815 266.181 30.2174 266.181 31.3683C266.181 32.7844 266.527 34.1271 267.217 35.3967C267.915 36.6592 268.832 37.6776 269.969 38.4519C271.106 39.2192 272.309 39.6029 273.579 39.6029C274.388 39.6029 275.187 39.439 275.975 39.1111C276.763 38.7833 277.457 38.3403 278.057 37.7823C278.657 37.2173 279.138 36.5476 279.501 35.7733C279.864 34.9921 280.045 34.176 280.045 33.325Z" fill="black"/>
<path d="M283.706 40.1784V40.0319C284.201 40.0319 284.515 39.9412 284.647 39.7598C284.787 39.5785 284.856 39.2681 284.856 38.8286V26.21C284.856 25.6589 284.776 25.3101 284.616 25.1636C284.462 25.0172 284.152 24.9369 283.685 24.923V24.766H287.818V24.923C287.448 24.916 287.176 24.9683 287.001 25.0799C286.827 25.1846 286.722 25.3276 286.688 25.5089C286.653 25.6903 286.635 25.9589 286.635 26.3146V37.1336C286.635 37.6149 286.691 38.016 286.803 38.3368C286.914 38.6507 287.085 38.9053 287.315 39.1006C287.553 39.296 287.859 39.439 288.236 39.5296C288.62 39.6203 289.073 39.6657 289.596 39.6657H291.48C292.163 39.6657 292.697 39.5471 293.081 39.3099C293.464 39.0727 293.733 38.7275 293.886 38.274C294.047 37.8137 294.144 37.2138 294.179 36.4744H294.326V40.1784H283.706Z" fill="black"/>
<path d="M311.965 40.1784H309.056V37.8032C307.577 39.4564 305.806 40.283 303.741 40.283C303.064 40.283 302.433 40.1923 301.847 40.0109C301.261 39.8296 300.734 39.5436 300.267 39.153C299.807 38.7623 299.441 38.2531 299.168 37.6253C298.896 36.9906 298.76 36.2616 298.76 35.4385V26.21C298.76 25.8263 298.736 25.5473 298.687 25.3729C298.638 25.1985 298.53 25.0799 298.363 25.0172C298.195 24.9474 297.951 24.916 297.63 24.923V24.766H301.722V24.923C301.324 24.923 301.027 24.9893 300.832 25.1218C300.637 25.2474 300.539 25.5717 300.539 26.0949V34.5596C300.539 35.5711 300.661 36.3872 300.905 37.008C301.15 37.6149 301.481 38.1032 301.899 38.4729C302.325 38.8426 302.775 39.1041 303.249 39.2576C303.723 39.4111 304.18 39.4878 304.62 39.4878C306.287 39.4878 307.766 38.7379 309.056 37.2382V26.8064C309.056 26.2832 309.032 25.8996 308.983 25.6554C308.941 25.4043 308.85 25.2195 308.711 25.1009C308.571 24.9823 308.355 24.923 308.062 24.923H307.916V24.766H311.965V24.923C311.553 24.9369 311.26 24.9997 311.086 25.1113C310.912 25.216 310.825 25.502 310.825 25.9693V38.5252C310.825 38.9228 310.842 39.2192 310.877 39.4145C310.912 39.6099 311.013 39.7633 311.18 39.8749C311.355 39.9865 311.616 40.0388 311.965 40.0319V40.1784Z" fill="black"/>
<path d="M327.522 24.2324L326.79 26.0949H326.643C326.671 26.0042 326.685 25.8542 326.685 25.645C326.685 25.4706 326.622 25.3659 326.497 25.3311C326.378 25.2892 326.2 25.2683 325.963 25.2683H321.935V38.4624C321.935 38.7623 321.949 39.0169 321.977 39.2262C322.004 39.4285 322.057 39.5924 322.134 39.718C322.21 39.8366 322.322 39.9203 322.468 39.9691C322.615 40.0109 322.842 40.0319 323.148 40.0319V40.1784H318.974V40.0319C319.322 39.997 319.574 39.9482 319.727 39.8854C319.887 39.8226 319.999 39.7075 320.062 39.5401C320.125 39.3657 320.156 39.0797 320.156 38.6821V25.2683H316.295C315.911 25.2683 315.657 25.2892 315.531 25.3311C315.413 25.3729 315.353 25.488 315.353 25.6763C315.353 25.7531 315.381 25.8926 315.437 26.0949H315.291L314.558 24.2324H314.705C314.837 24.4835 314.973 24.6405 315.113 24.7033C315.231 24.7451 315.482 24.766 315.866 24.766H326.11C326.521 24.766 326.811 24.7416 326.978 24.6928C327.152 24.644 327.285 24.4905 327.376 24.2324H327.522Z" fill="black"/>
<path d="M334.07 24.766V24.923C333.833 24.9021 333.579 24.9439 333.307 25.0486C333.042 25.1462 332.909 25.3764 332.909 25.7391C332.895 25.8228 332.888 26.0844 332.888 26.5239V38.3578C332.888 38.846 332.905 39.1983 332.94 39.4145C332.975 39.6238 333.076 39.7808 333.244 39.8854C333.418 39.99 333.694 40.0388 334.07 40.0319V40.1784H329.958V40.0319C330.328 40.0179 330.59 39.9691 330.743 39.8854C330.904 39.7947 331.005 39.6482 331.047 39.4459C331.088 39.2436 331.109 38.8879 331.109 38.3787V26.6599C331.109 26.1925 331.092 25.8438 331.057 25.6136C331.022 25.3834 330.921 25.2055 330.754 25.0799C330.586 24.9544 330.321 24.9021 329.958 24.923V24.766H334.07Z" fill="black"/>
<path d="M353.216 31.4311C353.216 32.61 353.025 33.7435 352.641 34.8317C352.257 35.9198 351.685 36.8859 350.925 37.73C350.172 38.574 349.247 39.2332 348.152 39.7075C347.057 40.1818 345.84 40.419 344.501 40.419C343.419 40.419 342.429 40.2342 341.529 39.8645C340.636 39.4878 339.862 38.9646 339.206 38.295C338.557 37.6184 338.062 36.8545 337.72 36.0035C337.386 35.1455 337.218 34.2457 337.218 33.304C337.218 32.3135 337.4 31.3021 337.762 30.2697C338.125 29.2303 338.666 28.2817 339.384 27.4237C340.103 26.5587 341.009 25.8612 342.104 25.3311C343.2 24.8009 344.448 24.5359 345.85 24.5359C346.959 24.5359 347.964 24.7137 348.864 25.0695C349.771 25.4183 350.552 25.9135 351.207 26.5553C351.863 27.19 352.362 27.9259 352.704 28.763C353.046 29.5931 353.216 30.4824 353.216 31.4311ZM352.254 33.325C352.254 32.1252 352.003 31.03 351.5 30.0395C350.998 29.049 350.346 28.2084 349.544 27.5179C348.749 26.8203 347.891 26.2867 346.97 25.917C346.049 25.5403 345.198 25.352 344.417 25.352C343.454 25.352 342.506 25.6066 341.571 26.1158C340.636 26.618 339.872 27.333 339.279 28.2608C338.686 29.1815 338.39 30.2174 338.39 31.3683C338.39 32.7844 338.735 34.1271 339.426 35.3967C340.123 36.6592 341.041 37.6776 342.178 38.4519C343.315 39.2192 344.518 39.6029 345.788 39.6029C346.597 39.6029 347.395 39.439 348.184 39.1111C348.972 38.7833 349.666 38.3403 350.266 37.7823C350.866 37.2173 351.347 36.5476 351.71 35.7733C352.072 34.9921 352.254 34.176 352.254 33.325Z" fill="black"/>
<path d="M369.129 24.766H372.111V24.923C371.651 24.9369 371.334 25.0346 371.159 25.216C370.992 25.3904 370.908 25.7635 370.908 26.3355V40.3667L358.614 27.2772V38.6821C358.614 38.9611 358.631 39.1913 358.666 39.3727C358.701 39.5471 358.764 39.6796 358.854 39.7703C358.945 39.861 359.039 39.9168 359.137 39.9377C359.235 39.9586 359.43 39.99 359.723 40.0319V40.1784H356.762V40.0319C357.152 40.0249 357.428 39.9726 357.588 39.8749C357.756 39.7773 357.857 39.6308 357.892 39.4355C357.927 39.2332 357.944 38.8879 357.944 38.3996V27.9678C357.944 27.0959 357.822 26.3634 357.578 25.7705C357.334 25.1706 356.741 24.8881 355.799 24.923V24.766H358.697L370.249 37.0708V26.189C370.249 25.6589 370.158 25.3171 369.977 25.1636C369.802 25.0032 369.52 24.923 369.129 24.923V24.766Z" fill="black"/>
<path d="M382.772 24.9648L383.504 26.8901L383.379 26.911C383.372 26.8971 383.319 26.8412 383.222 26.7436C382.984 26.4646 382.712 26.196 382.405 25.9379C382.105 25.6798 381.736 25.4636 381.296 25.2892C380.857 25.1148 380.351 25.0276 379.779 25.0276C379.061 25.0276 378.44 25.1741 377.917 25.4671C377.394 25.7601 376.999 26.1472 376.734 26.6285C376.476 27.1028 376.347 27.5981 376.347 28.1143C376.347 28.5956 376.441 29.0071 376.63 29.3489C376.825 29.6838 377.076 29.9593 377.383 30.1755C377.69 30.3848 378.098 30.5836 378.607 30.7719C379.116 30.9533 379.507 31.0893 379.779 31.18C380.526 31.4102 381.216 31.6787 381.851 31.9857C382.493 32.2856 383.068 32.753 383.577 33.3877C384.087 34.0155 384.341 34.8212 384.341 35.8047C384.341 36.7185 384.114 37.5207 383.661 38.2113C383.208 38.8949 382.643 39.4076 381.966 39.7494C381.694 39.8749 381.227 39.9796 380.564 40.0633C379.908 40.14 379.451 40.1784 379.193 40.1784H375.081V35.7001H375.238C375.252 36.3628 375.315 36.9243 375.426 37.3847C375.545 37.8381 375.761 38.2427 376.075 38.5984C376.389 38.9472 376.822 39.2157 377.373 39.4041C377.931 39.5924 378.632 39.6866 379.476 39.6866C380.285 39.6866 380.958 39.5715 381.495 39.3413C382.039 39.1111 382.458 38.8216 382.751 38.4729C383.044 38.1241 383.239 37.7823 383.337 37.4475C383.434 37.1057 383.483 36.7952 383.483 36.5162C383.483 35.8884 383.309 35.3618 382.96 34.9363C382.611 34.5038 382.186 34.1655 381.683 33.9214C381.188 33.6772 380.508 33.4052 379.643 33.1052C378.764 32.8053 378.143 32.5646 377.781 32.3833C377.425 32.2019 377.104 31.9787 376.818 31.7136C376.434 31.3369 376.128 30.8975 375.897 30.3953C375.667 29.886 375.552 29.3385 375.552 28.7525C375.552 27.9922 375.726 27.2947 376.075 26.6599C376.431 26.0181 376.947 25.5054 377.624 25.1218C378.3 24.7312 379.096 24.5359 380.009 24.5359C380.756 24.5359 381.621 24.6649 382.604 24.923C382.625 24.923 382.657 24.93 382.698 24.9439C382.74 24.9579 382.765 24.9648 382.772 24.9648Z" fill="black"/>
<path d="M69.7266 24.766H72.7086V24.923C72.2482 24.9369 71.9309 25.0346 71.7565 25.216C71.5891 25.3904 71.5054 25.7635 71.5054 26.3355V40.3667L59.2111 27.2772V38.6821C59.2111 38.9611 59.2285 39.1913 59.2634 39.3727C59.2983 39.5471 59.3611 39.6796 59.4517 39.7703C59.5424 39.861 59.6366 39.9168 59.7342 39.9377C59.8319 39.9586 60.0272 39.99 60.3202 40.0319V40.1784H57.3591V40.0319C57.7497 40.0249 58.0253 39.9726 58.1857 39.8749C58.3531 39.7773 58.4542 39.6308 58.4891 39.4355C58.524 39.2332 58.5414 38.8879 58.5414 38.3996V27.9678C58.5414 27.0959 58.4194 26.3634 58.1752 25.7705C57.9311 25.1706 57.3382 24.8881 56.3965 24.923V24.766H59.2948L70.8462 37.0708V26.189C70.8462 25.6589 70.7555 25.3171 70.5741 25.1636C70.3997 25.0032 70.1172 24.923 69.7266 24.923V24.766Z" stroke="black" stroke-width="0.6" mask="url(#path-1-outside-1_1_5881)"/>
<path d="M84.1014 33.0843H79.6022L77.2689 38.9123C77.1992 39.0867 77.1643 39.1809 77.1643 39.1948C77.0736 39.3762 77.0283 39.5401 77.0283 39.6866C77.0283 39.9168 77.1992 40.0319 77.541 40.0319V40.1784H75.2495V40.0319C75.6611 40.0249 75.961 39.9098 76.1494 39.6866C76.3377 39.4634 76.526 39.1146 76.7144 38.6403L82.3017 24.5359H82.5633L88.0669 38.159C88.0669 38.2148 88.0879 38.274 88.1297 38.3368L88.2134 38.567C88.3878 38.9995 88.5866 39.3518 88.8098 39.6238C89.04 39.8958 89.3644 40.0319 89.7829 40.0319V40.1784H86.1836V40.0319C86.3859 40.0319 86.5184 39.9865 86.5812 39.8958C86.6439 39.8052 86.6753 39.7215 86.6753 39.6447C86.6753 39.4494 86.5951 39.1704 86.4347 38.8077C86.4207 38.7798 86.4033 38.7379 86.3824 38.6821C86.3614 38.6193 86.344 38.581 86.3301 38.567L84.1014 33.0843ZM79.7487 32.6553H83.9131L81.8309 27.4028L79.7487 32.6553Z" stroke="black" stroke-width="0.6" mask="url(#path-1-outside-1_1_5881)"/>
<path d="M103.76 24.2324L103.028 26.0949H102.881C102.909 26.0042 102.923 25.8542 102.923 25.645C102.923 25.4706 102.86 25.3659 102.735 25.3311C102.616 25.2892 102.438 25.2683 102.201 25.2683H98.1727V38.4624C98.1727 38.7623 98.1867 39.0169 98.2146 39.2262C98.2425 39.4285 98.2948 39.5924 98.3715 39.718C98.4483 39.8366 98.5599 39.9203 98.7064 39.9691C98.8528 40.0109 99.0795 40.0319 99.3865 40.0319V40.1784H95.2116V40.0319C95.5604 39.997 95.8115 39.9482 95.965 39.8854C96.1254 39.8226 96.237 39.7075 96.2998 39.5401C96.3626 39.3657 96.394 39.0797 96.394 38.6821V25.2683H92.5331C92.1494 25.2683 91.8948 25.2892 91.7692 25.3311C91.6507 25.3729 91.5914 25.488 91.5914 25.6763C91.5914 25.7531 91.6193 25.8926 91.6751 26.0949H91.5286L90.7962 24.2324H90.9427C91.0752 24.4835 91.2112 24.6405 91.3507 24.7033C91.4693 24.7451 91.7204 24.766 92.1041 24.766H102.348C102.759 24.766 103.049 24.7416 103.216 24.6928C103.39 24.644 103.523 24.4905 103.614 24.2324H103.76Z" stroke="black" stroke-width="0.6" mask="url(#path-1-outside-1_1_5881)"/>
<path d="M120.656 40.1784H117.748V37.8032C116.269 39.4564 114.497 40.283 112.432 40.283C111.756 40.283 111.125 40.1923 110.539 40.0109C109.953 39.8296 109.426 39.5436 108.959 39.153C108.498 38.7623 108.132 38.2531 107.86 37.6253C107.588 36.9906 107.452 36.2616 107.452 35.4385V26.21C107.452 25.8263 107.428 25.5473 107.379 25.3729C107.33 25.1985 107.222 25.0799 107.054 25.0172C106.887 24.9474 106.643 24.916 106.322 24.923V24.766H110.413V24.923C110.015 24.923 109.719 24.9893 109.524 25.1218C109.328 25.2474 109.231 25.5717 109.231 26.0949V34.5596C109.231 35.5711 109.353 36.3872 109.597 37.008C109.841 37.6149 110.172 38.1032 110.591 38.4729C111.016 38.8426 111.466 39.1041 111.941 39.2576C112.415 39.4111 112.872 39.4878 113.311 39.4878C114.978 39.4878 116.457 38.7379 117.748 37.2382V26.8064C117.748 26.2832 117.723 25.8996 117.674 25.6554C117.633 25.4043 117.542 25.2195 117.402 25.1009C117.263 24.9823 117.047 24.923 116.754 24.923H116.607V24.766H120.656V24.923C120.245 24.9369 119.952 24.9997 119.778 25.1113C119.603 25.216 119.516 25.502 119.516 25.9693V38.5252C119.516 38.9228 119.533 39.2192 119.568 39.4145C119.603 39.6099 119.704 39.7633 119.872 39.8749C120.046 39.9865 120.308 40.0388 120.656 40.0319V40.1784Z" stroke="black" stroke-width="0.6" mask="url(#path-1-outside-1_1_5881)"/>
<path d="M124.087 24.923V24.766H128.46C129.416 24.766 130.107 24.7835 130.532 24.8184C130.965 24.8463 131.366 24.923 131.735 25.0486C132.412 25.2508 132.953 25.6205 133.357 26.1577C133.762 26.6878 133.964 27.3609 133.964 28.1771C133.964 28.7421 133.838 29.2862 133.587 29.8093C133.343 30.3325 133.015 30.7963 132.604 31.2009C132.192 31.6055 131.746 31.9403 131.265 32.2054L132.353 33.8795L132.447 34.026C132.579 34.2701 133.005 34.9014 133.723 35.9198C134.449 36.9313 135.101 37.7718 135.68 38.4415C135.945 38.7414 136.301 39.0239 136.747 39.289C137.194 39.554 137.689 39.6866 138.233 39.6866C138.624 39.6866 138.972 39.6133 139.279 39.4669C139.377 39.425 139.496 39.3657 139.635 39.289C139.775 39.2123 139.9 39.146 140.012 39.0902L140.075 39.2994C139.698 39.5924 139.304 39.8226 138.892 39.99C138.669 40.0737 138.362 40.1505 137.971 40.2202C137.588 40.29 137.201 40.3248 136.81 40.3248C136.489 40.3248 136.165 40.2865 135.837 40.2097C135.516 40.133 135.174 39.983 134.812 39.7598C134.449 39.5296 134.111 39.2192 133.797 38.8286C132.987 37.8451 132.116 36.6523 131.181 35.2502C131.181 35.2362 131.174 35.2153 131.16 35.1874C131.146 35.1595 131.139 35.1455 131.139 35.1455L129.59 32.7599L129.015 32.7809C128.931 32.7948 128.666 32.8018 128.22 32.8018H126.975V38.703C126.975 39.0867 127.013 39.3727 127.09 39.561C127.166 39.7494 127.275 39.8714 127.414 39.9272C127.554 39.983 127.773 40.0179 128.073 40.0319V40.1784H124.087V40.0319C124.575 40.0109 124.882 39.9133 125.008 39.7389C125.133 39.5575 125.196 39.1669 125.196 38.567V26.3146C125.196 25.8961 125.154 25.5892 125.07 25.3938C124.994 25.1985 124.885 25.0765 124.746 25.0276C124.606 24.9718 124.387 24.9369 124.087 24.923ZM126.975 25.1741V32.4042H128.586C128.9 32.4042 129.283 32.3658 129.737 32.2891C130.197 32.2054 130.543 32.1008 130.773 31.9752C131.212 31.7311 131.582 31.3753 131.882 30.9079C132.182 30.4336 132.332 29.8442 132.332 29.1397C132.332 28.8327 132.29 28.4944 132.206 28.1247C132.123 27.7481 131.993 27.3923 131.819 27.0575C131.652 26.7227 131.432 26.4192 131.16 26.1472C130.832 25.8193 130.441 25.5752 129.988 25.4148C129.542 25.2543 128.959 25.1741 128.241 25.1741H126.975Z" stroke="black" stroke-width="0.6" mask="url(#path-1-outside-1_1_5881)"/>
<path d="M165.811 40.0319V40.1784H159.596C159.038 40.1784 158.518 40.1574 158.037 40.1156C157.562 40.0737 157.015 39.9621 156.394 39.7808C155.773 39.5924 155.17 39.3099 154.584 38.9332C153.37 38.1729 152.4 37.2033 151.675 36.0245C150.956 34.8456 150.597 33.6144 150.597 32.3309C150.597 31.459 150.789 30.5627 151.173 29.6419C151.563 28.7211 152.135 27.8736 152.889 27.0993C153.642 26.3251 154.563 25.7042 155.651 25.2369C156.746 24.7695 157.96 24.5359 159.292 24.5359C160.827 24.5359 162.428 24.8707 164.095 25.5403L164.733 27.3191H164.586C164.042 26.6285 163.296 26.06 162.347 25.6136C161.406 25.1671 160.38 24.9439 159.271 24.9439C158.225 24.9439 157.273 25.1567 156.415 25.5822C155.557 26.0077 154.838 26.5866 154.259 27.3191C153.68 28.0515 153.237 28.892 152.93 29.8407C152.631 30.7824 152.481 31.7555 152.481 32.7599C152.481 34.3852 152.805 35.6861 153.454 36.6627C154.102 37.6323 154.821 38.3403 155.609 38.7867C156.3 39.1774 157.07 39.439 157.921 39.5715C158.779 39.704 159.466 39.7703 159.983 39.7703L160.809 39.7494C161.43 39.7354 161.88 39.704 162.159 39.6552C162.445 39.5994 162.64 39.4808 162.745 39.2994C162.857 39.1181 162.912 38.8251 162.912 38.4205V36.0872C162.912 35.6338 162.822 35.3304 162.64 35.1769C162.459 35.0235 162.187 34.9537 161.824 34.9677V34.8212H165.811V34.9677C165.329 34.9747 165.022 35.0758 164.89 35.2711C164.757 35.4664 164.691 35.7873 164.691 36.2337V38.6612C164.691 39.1495 164.754 39.5017 164.879 39.718C165.012 39.9272 165.249 40.0319 165.591 40.0319H165.811Z" stroke="black" stroke-width="0.6" mask="url(#path-1-outside-1_1_5881)"/>
<path d="M168.142 40.1784V40.0319C168.638 40.0319 168.951 39.9412 169.084 39.7598C169.224 39.5785 169.293 39.2681 169.293 38.8286V26.21C169.293 25.6589 169.213 25.3101 169.053 25.1636C168.899 25.0172 168.589 24.9369 168.121 24.923V24.766H172.254V24.923C171.885 24.916 171.613 24.9683 171.438 25.0799C171.264 25.1846 171.159 25.3276 171.124 25.5089C171.089 25.6903 171.072 25.9589 171.072 26.3146V37.1336C171.072 37.6149 171.128 38.016 171.239 38.3368C171.351 38.6507 171.522 38.9053 171.752 39.1006C171.989 39.296 172.296 39.439 172.673 39.5296C173.057 39.6203 173.51 39.6657 174.033 39.6657H175.916C176.6 39.6657 177.134 39.5471 177.517 39.3099C177.901 39.0727 178.17 38.7275 178.323 38.274C178.483 37.8137 178.581 37.2138 178.616 36.4744H178.762V40.1784H168.142Z" stroke="black" stroke-width="0.6" mask="url(#path-1-outside-1_1_5881)"/>
<path d="M197.919 31.4311C197.919 32.61 197.727 33.7435 197.343 34.8317C196.96 35.9198 196.388 36.8859 195.627 37.73C194.874 38.574 193.95 39.2332 192.855 39.7075C191.76 40.1818 190.542 40.419 189.203 40.419C188.122 40.419 187.131 40.2342 186.232 39.8645C185.339 39.4878 184.564 38.9646 183.909 38.295C183.26 37.6184 182.765 36.8545 182.423 36.0035C182.088 35.1455 181.921 34.2457 181.921 33.304C181.921 32.3135 182.102 31.3021 182.465 30.2697C182.827 29.2303 183.368 28.2817 184.087 27.4237C184.805 26.5587 185.712 25.8612 186.807 25.3311C187.902 24.8009 189.151 24.5359 190.553 24.5359C191.662 24.5359 192.666 24.7137 193.566 25.0695C194.473 25.4183 195.254 25.9135 195.91 26.5553C196.566 27.19 197.064 27.9259 197.406 28.763C197.748 29.5931 197.919 30.4824 197.919 31.4311ZM196.956 33.325C196.956 32.1252 196.705 31.03 196.203 30.0395C195.701 29.049 195.049 28.2084 194.246 27.5179C193.451 26.8203 192.593 26.2867 191.672 25.917C190.752 25.5403 189.901 25.352 189.119 25.352C188.157 25.352 187.208 25.6066 186.273 26.1158C185.339 26.618 184.575 27.333 183.982 28.2608C183.389 29.1815 183.093 30.2174 183.093 31.3683C183.093 32.7844 183.438 34.1271 184.128 35.3967C184.826 36.6592 185.743 37.6776 186.88 38.4519C188.017 39.2192 189.221 39.6029 190.49 39.6029C191.299 39.6029 192.098 39.439 192.886 39.1111C193.674 38.7833 194.368 38.3403 194.968 37.7823C195.568 37.2173 196.05 36.5476 196.412 35.7733C196.775 34.9921 196.956 34.176 196.956 33.325Z" stroke="black" stroke-width="0.6" mask="url(#path-1-outside-1_1_5881)"/>
<path d="M201.234 24.923V24.766H205.242C206.141 24.766 206.835 24.7939 207.324 24.8498C207.812 24.9056 208.248 25.0207 208.632 25.195C209.287 25.502 209.803 25.9379 210.18 26.5029C210.557 27.061 210.745 27.7062 210.745 28.4386C210.745 29.75 210.103 30.7789 208.82 31.5253C209.748 31.6927 210.463 32.0205 210.965 32.5088C211.774 33.2761 212.179 34.2911 212.179 35.5536C212.179 36.4953 211.976 37.3149 211.572 38.0125C211.167 38.703 210.693 39.2262 210.149 39.582C209.919 39.7284 209.685 39.84 209.448 39.9168C209.218 39.9935 208.966 40.0528 208.694 40.0946C208.429 40.1295 208.189 40.1539 207.972 40.1679C207.756 40.1749 207.488 40.1784 207.167 40.1784H201.213V40.0319C201.576 40.0319 201.834 39.9796 201.987 39.8749C202.141 39.7703 202.235 39.6099 202.27 39.3936C202.305 39.1704 202.322 38.7972 202.322 38.274V26.6599C202.322 26.1298 202.305 25.7601 202.27 25.5508C202.242 25.3415 202.151 25.1881 201.998 25.0904C201.844 24.9858 201.59 24.93 201.234 24.923ZM204.101 25.0904V31.8601H205.974C207.243 31.8601 208.084 31.5009 208.496 30.7824C208.914 30.0569 209.123 29.3315 209.123 28.606C209.123 27.1063 208.516 26.0774 207.303 25.5194C206.668 25.2334 205.737 25.0904 204.509 25.0904H204.101ZM205.304 32.1845H204.101V37.0708C204.101 37.5591 204.118 37.9427 204.153 38.2217C204.195 38.5008 204.314 38.7623 204.509 39.0065C204.704 39.2506 205.015 39.439 205.44 39.5715C205.873 39.704 206.462 39.7703 207.209 39.7703C208.087 39.7703 208.768 39.6273 209.249 39.3413C210.079 38.846 210.494 37.8904 210.494 36.4744C210.494 35.7559 210.396 35.1072 210.201 34.5282C210.006 33.9493 209.723 33.4645 209.354 33.0738C208.991 32.6832 208.548 32.4356 208.025 32.3309C207.529 32.2333 206.623 32.1845 205.304 32.1845Z" stroke="black" stroke-width="0.6" mask="url(#path-1-outside-1_1_5881)"/>
<path d="M223.519 33.0843H219.02L216.687 38.9123C216.617 39.0867 216.582 39.1809 216.582 39.1948C216.491 39.3762 216.446 39.5401 216.446 39.6866C216.446 39.9168 216.617 40.0319 216.959 40.0319V40.1784H214.667V40.0319C215.079 40.0249 215.379 39.9098 215.567 39.6866C215.755 39.4634 215.944 39.1146 216.132 38.6403L221.719 24.5359H221.981L227.485 38.159C227.485 38.2148 227.506 38.274 227.547 38.3368L227.631 38.567C227.805 38.9995 228.004 39.3518 228.228 39.6238C228.458 39.8958 228.782 40.0319 229.201 40.0319V40.1784H225.601V40.0319C225.804 40.0319 225.936 39.9865 225.999 39.8958C226.062 39.8052 226.093 39.7215 226.093 39.6447C226.093 39.4494 226.013 39.1704 225.852 38.8077C225.838 38.7798 225.821 38.7379 225.8 38.6821C225.779 38.6193 225.762 38.581 225.748 38.567L223.519 33.0843ZM219.166 32.6553H223.331L221.249 27.4028L219.166 32.6553Z" stroke="black" stroke-width="0.6" mask="url(#path-1-outside-1_1_5881)"/>
<path d="M231.292 40.1784V40.0319C231.787 40.0319 232.101 39.9412 232.233 39.7598C232.373 39.5785 232.443 39.2681 232.443 38.8286V26.21C232.443 25.6589 232.362 25.3101 232.202 25.1636C232.048 25.0172 231.738 24.9369 231.271 24.923V24.766H235.404V24.923C235.034 24.916 234.762 24.9683 234.587 25.0799C234.413 25.1846 234.308 25.3276 234.274 25.5089C234.239 25.6903 234.221 25.9589 234.221 26.3146V37.1336C234.221 37.6149 234.277 38.016 234.389 38.3368C234.5 38.6507 234.671 38.9053 234.901 39.1006C235.139 39.296 235.445 39.439 235.822 39.5296C236.206 39.6203 236.659 39.6657 237.182 39.6657H239.066C239.749 39.6657 240.283 39.5471 240.667 39.3099C241.05 39.0727 241.319 38.7275 241.472 38.274C241.633 37.8137 241.73 37.2138 241.765 36.4744H241.912V40.1784H231.292Z" stroke="black" stroke-width="0.6" mask="url(#path-1-outside-1_1_5881)"/>
<path d="M260.533 24.9648L261.265 26.8901L261.14 26.911C261.133 26.8971 261.08 26.8412 260.983 26.7436C260.746 26.4646 260.474 26.196 260.167 25.9379C259.867 25.6798 259.497 25.4636 259.058 25.2892C258.618 25.1148 258.112 25.0276 257.54 25.0276C256.822 25.0276 256.201 25.1741 255.678 25.4671C255.155 25.7601 254.761 26.1472 254.496 26.6285C254.238 27.1028 254.108 27.5981 254.108 28.1143C254.108 28.5956 254.203 29.0071 254.391 29.3489C254.586 29.6838 254.837 29.9593 255.144 30.1755C255.451 30.3848 255.859 30.5836 256.369 30.7719C256.878 30.9533 257.268 31.0893 257.54 31.18C258.287 31.4102 258.977 31.6787 259.612 31.9857C260.254 32.2856 260.829 32.753 261.339 33.3877C261.848 34.0155 262.102 34.8212 262.102 35.8047C262.102 36.7185 261.876 37.5207 261.422 38.2113C260.969 38.8949 260.404 39.4076 259.727 39.7494C259.455 39.8749 258.988 39.9796 258.325 40.0633C257.669 40.14 257.213 40.1784 256.954 40.1784H252.842V35.7001H252.999C253.013 36.3628 253.076 36.9243 253.188 37.3847C253.306 37.8381 253.523 38.2427 253.836 38.5984C254.15 38.9472 254.583 39.2157 255.134 39.4041C255.692 39.5924 256.393 39.6866 257.237 39.6866C258.046 39.6866 258.719 39.5715 259.256 39.3413C259.8 39.1111 260.219 38.8216 260.512 38.4729C260.805 38.1241 261 37.7823 261.098 37.4475C261.196 37.1057 261.244 36.7952 261.244 36.5162C261.244 35.8884 261.07 35.3618 260.721 34.9363C260.372 34.5038 259.947 34.1655 259.445 33.9214C258.949 33.6772 258.269 33.4052 257.404 33.1052C256.525 32.8053 255.905 32.5646 255.542 32.3833C255.186 32.2019 254.865 31.9787 254.579 31.7136C254.196 31.3369 253.889 30.8975 253.659 30.3953C253.428 29.886 253.313 29.3385 253.313 28.7525C253.313 27.9922 253.488 27.2947 253.836 26.6599C254.192 26.0181 254.708 25.5054 255.385 25.1218C256.062 24.7312 256.857 24.5359 257.771 24.5359C258.517 24.5359 259.382 24.6649 260.365 24.923C260.386 24.923 260.418 24.93 260.46 24.9439C260.501 24.9579 260.526 24.9648 260.533 24.9648Z" stroke="black" stroke-width="0.6" mask="url(#path-1-outside-1_1_5881)"/>
<path d="M281.008 31.4311C281.008 32.61 280.816 33.7435 280.432 34.8317C280.049 35.9198 279.477 36.8859 278.716 37.73C277.963 38.574 277.039 39.2332 275.944 39.7075C274.848 40.1818 273.631 40.419 272.292 40.419C271.211 40.419 270.22 40.2342 269.32 39.8645C268.427 39.4878 267.653 38.9646 266.997 38.295C266.349 37.6184 265.853 36.8545 265.512 36.0035C265.177 35.1455 265.009 34.2457 265.009 33.304C265.009 32.3135 265.191 31.3021 265.554 30.2697C265.916 29.2303 266.457 28.2817 267.175 27.4237C267.894 26.5587 268.801 25.8612 269.896 25.3311C270.991 24.8009 272.24 24.5359 273.642 24.5359C274.751 24.5359 275.755 24.7137 276.655 25.0695C277.562 25.4183 278.343 25.9135 278.999 26.5553C279.654 27.19 280.153 27.9259 280.495 28.763C280.837 29.5931 281.008 30.4824 281.008 31.4311ZM280.045 33.325C280.045 32.1252 279.794 31.03 279.292 30.0395C278.79 29.049 278.137 28.2084 277.335 27.5179C276.54 26.8203 275.682 26.2867 274.761 25.917C273.84 25.5403 272.989 25.352 272.208 25.352C271.246 25.352 270.297 25.6066 269.362 26.1158C268.427 26.618 267.664 27.333 267.071 28.2608C266.478 29.1815 266.181 30.2174 266.181 31.3683C266.181 32.7844 266.527 34.1271 267.217 35.3967C267.915 36.6592 268.832 37.6776 269.969 38.4519C271.106 39.2192 272.309 39.6029 273.579 39.6029C274.388 39.6029 275.187 39.439 275.975 39.1111C276.763 38.7833 277.457 38.3403 278.057 37.7823C278.657 37.2173 279.138 36.5476 279.501 35.7733C279.864 34.9921 280.045 34.176 280.045 33.325Z" stroke="black" stroke-width="0.6" mask="url(#path-1-outside-1_1_5881)"/>
<path d="M283.706 40.1784V40.0319C284.201 40.0319 284.515 39.9412 284.647 39.7598C284.787 39.5785 284.856 39.2681 284.856 38.8286V26.21C284.856 25.6589 284.776 25.3101 284.616 25.1636C284.462 25.0172 284.152 24.9369 283.685 24.923V24.766H287.818V24.923C287.448 24.916 287.176 24.9683 287.001 25.0799C286.827 25.1846 286.722 25.3276 286.688 25.5089C286.653 25.6903 286.635 25.9589 286.635 26.3146V37.1336C286.635 37.6149 286.691 38.016 286.803 38.3368C286.914 38.6507 287.085 38.9053 287.315 39.1006C287.553 39.296 287.859 39.439 288.236 39.5296C288.62 39.6203 289.073 39.6657 289.596 39.6657H291.48C292.163 39.6657 292.697 39.5471 293.081 39.3099C293.464 39.0727 293.733 38.7275 293.886 38.274C294.047 37.8137 294.144 37.2138 294.179 36.4744H294.326V40.1784H283.706Z" stroke="black" stroke-width="0.6" mask="url(#path-1-outside-1_1_5881)"/>
<path d="M311.965 40.1784H309.056V37.8032C307.577 39.4564 305.806 40.283 303.741 40.283C303.064 40.283 302.433 40.1923 301.847 40.0109C301.261 39.8296 300.734 39.5436 300.267 39.153C299.807 38.7623 299.441 38.2531 299.168 37.6253C298.896 36.9906 298.76 36.2616 298.76 35.4385V26.21C298.76 25.8263 298.736 25.5473 298.687 25.3729C298.638 25.1985 298.53 25.0799 298.363 25.0172C298.195 24.9474 297.951 24.916 297.63 24.923V24.766H301.722V24.923C301.324 24.923 301.027 24.9893 300.832 25.1218C300.637 25.2474 300.539 25.5717 300.539 26.0949V34.5596C300.539 35.5711 300.661 36.3872 300.905 37.008C301.15 37.6149 301.481 38.1032 301.899 38.4729C302.325 38.8426 302.775 39.1041 303.249 39.2576C303.723 39.4111 304.18 39.4878 304.62 39.4878C306.287 39.4878 307.766 38.7379 309.056 37.2382V26.8064C309.056 26.2832 309.032 25.8996 308.983 25.6554C308.941 25.4043 308.85 25.2195 308.711 25.1009C308.571 24.9823 308.355 24.923 308.062 24.923H307.916V24.766H311.965V24.923C311.553 24.9369 311.26 24.9997 311.086 25.1113C310.912 25.216 310.825 25.502 310.825 25.9693V38.5252C310.825 38.9228 310.842 39.2192 310.877 39.4145C310.912 39.6099 311.013 39.7633 311.18 39.8749C311.355 39.9865 311.616 40.0388 311.965 40.0319V40.1784Z" stroke="black" stroke-width="0.6" mask="url(#path-1-outside-1_1_5881)"/>
<path d="M327.522 24.2324L326.79 26.0949H326.643C326.671 26.0042 326.685 25.8542 326.685 25.645C326.685 25.4706 326.622 25.3659 326.497 25.3311C326.378 25.2892 326.2 25.2683 325.963 25.2683H321.935V38.4624C321.935 38.7623 321.949 39.0169 321.977 39.2262C322.004 39.4285 322.057 39.5924 322.134 39.718C322.21 39.8366 322.322 39.9203 322.468 39.9691C322.615 40.0109 322.842 40.0319 323.148 40.0319V40.1784H318.974V40.0319C319.322 39.997 319.574 39.9482 319.727 39.8854C319.887 39.8226 319.999 39.7075 320.062 39.5401C320.125 39.3657 320.156 39.0797 320.156 38.6821V25.2683H316.295C315.911 25.2683 315.657 25.2892 315.531 25.3311C315.413 25.3729 315.353 25.488 315.353 25.6763C315.353 25.7531 315.381 25.8926 315.437 26.0949H315.291L314.558 24.2324H314.705C314.837 24.4835 314.973 24.6405 315.113 24.7033C315.231 24.7451 315.482 24.766 315.866 24.766H326.11C326.521 24.766 326.811 24.7416 326.978 24.6928C327.152 24.644 327.285 24.4905 327.376 24.2324H327.522Z" stroke="black" stroke-width="0.6" mask="url(#path-1-outside-1_1_5881)"/>
<path d="M334.07 24.766V24.923C333.833 24.9021 333.579 24.9439 333.307 25.0486C333.042 25.1462 332.909 25.3764 332.909 25.7391C332.895 25.8228 332.888 26.0844 332.888 26.5239V38.3578C332.888 38.846 332.905 39.1983 332.94 39.4145C332.975 39.6238 333.076 39.7808 333.244 39.8854C333.418 39.99 333.694 40.0388 334.07 40.0319V40.1784H329.958V40.0319C330.328 40.0179 330.59 39.9691 330.743 39.8854C330.904 39.7947 331.005 39.6482 331.047 39.4459C331.088 39.2436 331.109 38.8879 331.109 38.3787V26.6599C331.109 26.1925 331.092 25.8438 331.057 25.6136C331.022 25.3834 330.921 25.2055 330.754 25.0799C330.586 24.9544 330.321 24.9021 329.958 24.923V24.766H334.07Z" stroke="black" stroke-width="0.6" mask="url(#path-1-outside-1_1_5881)"/>
<path d="M353.216 31.4311C353.216 32.61 353.025 33.7435 352.641 34.8317C352.257 35.9198 351.685 36.8859 350.925 37.73C350.172 38.574 349.247 39.2332 348.152 39.7075C347.057 40.1818 345.84 40.419 344.501 40.419C343.419 40.419 342.429 40.2342 341.529 39.8645C340.636 39.4878 339.862 38.9646 339.206 38.295C338.557 37.6184 338.062 36.8545 337.72 36.0035C337.386 35.1455 337.218 34.2457 337.218 33.304C337.218 32.3135 337.4 31.3021 337.762 30.2697C338.125 29.2303 338.666 28.2817 339.384 27.4237C340.103 26.5587 341.009 25.8612 342.104 25.3311C343.2 24.8009 344.448 24.5359 345.85 24.5359C346.959 24.5359 347.964 24.7137 348.864 25.0695C349.771 25.4183 350.552 25.9135 351.207 26.5553C351.863 27.19 352.362 27.9259 352.704 28.763C353.046 29.5931 353.216 30.4824 353.216 31.4311ZM352.254 33.325C352.254 32.1252 352.003 31.03 351.5 30.0395C350.998 29.049 350.346 28.2084 349.544 27.5179C348.749 26.8203 347.891 26.2867 346.97 25.917C346.049 25.5403 345.198 25.352 344.417 25.352C343.454 25.352 342.506 25.6066 341.571 26.1158C340.636 26.618 339.872 27.333 339.279 28.2608C338.686 29.1815 338.39 30.2174 338.39 31.3683C338.39 32.7844 338.735 34.1271 339.426 35.3967C340.123 36.6592 341.041 37.6776 342.178 38.4519C343.315 39.2192 344.518 39.6029 345.788 39.6029C346.597 39.6029 347.395 39.439 348.184 39.1111C348.972 38.7833 349.666 38.3403 350.266 37.7823C350.866 37.2173 351.347 36.5476 351.71 35.7733C352.072 34.9921 352.254 34.176 352.254 33.325Z" stroke="black" stroke-width="0.6" mask="url(#path-1-outside-1_1_5881)"/>
<path d="M369.129 24.766H372.111V24.923C371.651 24.9369 371.334 25.0346 371.159 25.216C370.992 25.3904 370.908 25.7635 370.908 26.3355V40.3667L358.614 27.2772V38.6821C358.614 38.9611 358.631 39.1913 358.666 39.3727C358.701 39.5471 358.764 39.6796 358.854 39.7703C358.945 39.861 359.039 39.9168 359.137 39.9377C359.235 39.9586 359.43 39.99 359.723 40.0319V40.1784H356.762V40.0319C357.152 40.0249 357.428 39.9726 357.588 39.8749C357.756 39.7773 357.857 39.6308 357.892 39.4355C357.927 39.2332 357.944 38.8879 357.944 38.3996V27.9678C357.944 27.0959 357.822 26.3634 357.578 25.7705C357.334 25.1706 356.741 24.8881 355.799 24.923V24.766H358.697L370.249 37.0708V26.189C370.249 25.6589 370.158 25.3171 369.977 25.1636C369.802 25.0032 369.52 24.923 369.129 24.923V24.766Z" stroke="black" stroke-width="0.6" mask="url(#path-1-outside-1_1_5881)"/>
<path d="M382.772 24.9648L383.504 26.8901L383.379 26.911C383.372 26.8971 383.319 26.8412 383.222 26.7436C382.984 26.4646 382.712 26.196 382.405 25.9379C382.105 25.6798 381.736 25.4636 381.296 25.2892C380.857 25.1148 380.351 25.0276 379.779 25.0276C379.061 25.0276 378.44 25.1741 377.917 25.4671C377.394 25.7601 376.999 26.1472 376.734 26.6285C376.476 27.1028 376.347 27.5981 376.347 28.1143C376.347 28.5956 376.441 29.0071 376.63 29.3489C376.825 29.6838 377.076 29.9593 377.383 30.1755C377.69 30.3848 378.098 30.5836 378.607 30.7719C379.116 30.9533 379.507 31.0893 379.779 31.18C380.526 31.4102 381.216 31.6787 381.851 31.9857C382.493 32.2856 383.068 32.753 383.577 33.3877C384.087 34.0155 384.341 34.8212 384.341 35.8047C384.341 36.7185 384.114 37.5207 383.661 38.2113C383.208 38.8949 382.643 39.4076 381.966 39.7494C381.694 39.8749 381.227 39.9796 380.564 40.0633C379.908 40.14 379.451 40.1784 379.193 40.1784H375.081V35.7001H375.238C375.252 36.3628 375.315 36.9243 375.426 37.3847C375.545 37.8381 375.761 38.2427 376.075 38.5984C376.389 38.9472 376.822 39.2157 377.373 39.4041C377.931 39.5924 378.632 39.6866 379.476 39.6866C380.285 39.6866 380.958 39.5715 381.495 39.3413C382.039 39.1111 382.458 38.8216 382.751 38.4729C383.044 38.1241 383.239 37.7823 383.337 37.4475C383.434 37.1057 383.483 36.7952 383.483 36.5162C383.483 35.8884 383.309 35.3618 382.96 34.9363C382.611 34.5038 382.186 34.1655 381.683 33.9214C381.188 33.6772 380.508 33.4052 379.643 33.1052C378.764 32.8053 378.143 32.5646 377.781 32.3833C377.425 32.2019 377.104 31.9787 376.818 31.7136C376.434 31.3369 376.128 30.8975 375.897 30.3953C375.667 29.886 375.552 29.3385 375.552 28.7525C375.552 27.9922 375.726 27.2947 376.075 26.6599C376.431 26.0181 376.947 25.5054 377.624 25.1218C378.3 24.7312 379.096 24.5359 380.009 24.5359C380.756 24.5359 381.621 24.6649 382.604 24.923C382.625 24.923 382.657 24.93 382.698 24.9439C382.74 24.9579 382.765 24.9648 382.772 24.9648Z" stroke="black" stroke-width="0.6" mask="url(#path-1-outside-1_1_5881)"/>
<path fill-rule="evenodd" clip-rule="evenodd" d="M15.0051 20.998H0V44.9985H50V20.998H25.0051V22.6621H46.3317V43.3292H9.66504V22.6621H15.0051V20.998Z" fill="#9D9489"/>
<path d="M33.1057 26.444C37.0476 20.8328 36.5172 15.9747 35.2051 14.666C40.8859 17.8327 43.8519 24.9996 38.6178 32.4997C33.2425 40.2022 34.7677 47.3058 36.5172 50.0001C25.8815 38.8332 27.4233 34.533 33.1057 26.444Z" fill="#0E218F"/>
<path d="M26.6177 11.2225C31.0945 5.41493 29.7194 1.2099 28.5028 0C32.8362 2.16671 37.0524 8.37389 32.0028 17.0004C28.0028 23.8338 28.1695 28.8339 29.3361 33.0007C21.5028 27.5006 21.0216 18.4819 26.6177 11.2225Z" fill="#9D9489"/>
<path d="M15.7786 17.557C19.3059 12.8162 18.2707 9.65564 17.3122 8.66797C20.1877 11.1081 23.2548 15.9884 19.8043 22.0887C16.4086 28.0921 16.9927 33.3017 18.2707 35.3352C11.1779 26.7947 11.3696 23.4831 15.7786 17.557Z" fill="#0E218F"/>
<rect y="43.3359" width="50" height="1.6667" fill="#9D9489"/>
</svg>
