<svg class="contact-icon" xmlns="http://www.w3.org/2000/svg" viewBox="0 0 24 24" aria-hidden="true">
  <path d="M17.3274 21.4996C16.4124 21.4996 15.1271 21.1686 13.2024 20.0933C10.862 18.7808 9.05165 17.5691 6.72383 15.2474C4.47946 13.0044 3.38727 11.5522 1.85868 8.77066C0.131803 5.63003 0.426178 3.98378 0.755241 3.28019C1.14712 2.43925 1.72555 1.93628 2.47321 1.43707C2.89787 1.15883 3.34727 0.920323 3.81571 0.724565C3.86258 0.704409 3.90618 0.68519 3.94508 0.667846C4.17712 0.563315 4.52868 0.405346 4.97399 0.574096C5.27118 0.685659 5.53649 0.91394 5.9518 1.3241C6.80352 2.1641 7.96743 4.03488 8.3968 4.95363C8.68508 5.57285 8.87587 5.9816 8.87633 6.44003C8.87633 6.97675 8.60633 7.39066 8.27868 7.83738C8.21727 7.92128 8.15633 8.00144 8.09727 8.07925C7.74055 8.548 7.66227 8.68347 7.71383 8.92535C7.81837 9.41144 8.5979 10.8585 9.87899 12.1368C11.1601 13.415 12.5654 14.1453 13.0534 14.2494C13.3056 14.3033 13.4438 14.2218 13.9276 13.8524C13.997 13.7994 14.0682 13.7446 14.1427 13.6897C14.6424 13.318 15.0371 13.055 15.5612 13.055H15.564C16.0201 13.055 16.4106 13.2528 17.0574 13.5791C17.9012 14.0047 19.8282 15.1536 20.6734 16.0063C21.0845 16.4207 21.3137 16.685 21.4257 16.9818C21.5945 17.4285 21.4356 17.7786 21.332 18.013C21.3146 18.0519 21.2954 18.0946 21.2752 18.1419C21.0779 18.6095 20.838 19.058 20.5585 19.4816C20.0602 20.2269 19.5554 20.8039 18.7126 21.1963C18.2798 21.401 17.8062 21.5047 17.3274 21.4996Z" fill="currentColor"/>
</svg>
